<?xml version="1.0" standalone="no"?>
<!DOCTYPE svg PUBLIC "-//W3C//DTD SVG 1.1//EN" "http://www.w3.org/Graphics/SVG/1.1/DTD/svg11.dtd">

<svg width="270.59999999999997" height="133.39999999999998" viewBox="0 0 270.59999999999997 133.39999999999998" version="1.1" xmlns="http://www.w3.org/2000/svg" xmlns:xlink="http://www.w3.org/1999/xlink">
<!-- automatically generated by aafigure --><g>
    <line x1="3.0" y1="3.0" x2="12.799999999999999" y2="12.799999999999999" stroke="#000000" stroke-width="2.0" />
    <line x1="12.799999999999999" y1="3.0" x2="12.799999999999999" y2="3.0" stroke="#000000" stroke-width="2.0" />
    <line x1="3.0" y1="7.8999999999999995" x2="7.8999999999999995" y2="12.799999999999999" stroke="#000000" stroke-width="2.0" />
    <line x1="7.8999999999999995" y1="3.0" x2="12.799999999999999" y2="7.8999999999999995" stroke="#000000" stroke-width="2.0" />
    <line x1="3.0" y1="3.0" x2="3.0" y2="12.799999999999999" stroke="#000000" stroke-width="2.0" />
    <line x1="3.0" y1="3.0" x2="12.799999999999999" y2="3.0" stroke="#000000" stroke-width="2.0" />
    <line x1="3.0" y1="12.799999999999999" x2="12.799999999999999" y2="22.599999999999998" stroke="#000000" stroke-width="2.0" />
    <line x1="12.799999999999999" y1="12.799999999999999" x2="12.799999999999999" y2="12.799999999999999" stroke="#000000" stroke-width="2.0" />
    <line x1="3.0" y1="17.7" x2="7.8999999999999995" y2="22.599999999999998" stroke="#000000" stroke-width="2.0" />
    <line x1="7.8999999999999995" y1="12.799999999999999" x2="12.799999999999999" y2="17.7" stroke="#000000" stroke-width="2.0" />
    <line x1="12.799999999999999" y1="12.799999999999999" x2="12.799999999999999" y2="22.599999999999998" stroke="#000000" stroke-width="2.0" />
    <line x1="3.0" y1="12.799999999999999" x2="3.0" y2="22.599999999999998" stroke="#000000" stroke-width="2.0" />
    <line x1="3.0" y1="22.599999999999998" x2="12.799999999999999" y2="32.4" stroke="#000000" stroke-width="2.0" />
    <line x1="12.799999999999999" y1="22.599999999999998" x2="12.799999999999999" y2="22.599999999999998" stroke="#000000" stroke-width="2.0" />
    <line x1="3.0" y1="27.499999999999996" x2="7.8999999999999995" y2="32.4" stroke="#000000" stroke-width="2.0" />
    <line x1="7.8999999999999995" y1="22.599999999999998" x2="12.799999999999999" y2="27.499999999999996" stroke="#000000" stroke-width="2.0" />
    <line x1="12.799999999999999" y1="22.599999999999998" x2="12.799999999999999" y2="32.4" stroke="#000000" stroke-width="2.0" />
    <line x1="3.0" y1="22.599999999999998" x2="3.0" y2="32.4" stroke="#000000" stroke-width="2.0" />
    <line x1="3.0" y1="32.4" x2="12.799999999999999" y2="42.199999999999996" stroke="#000000" stroke-width="2.0" />
    <line x1="12.799999999999999" y1="32.4" x2="12.799999999999999" y2="32.4" stroke="#000000" stroke-width="2.0" />
    <line x1="3.0" y1="37.3" x2="7.8999999999999995" y2="42.199999999999996" stroke="#000000" stroke-width="2.0" />
    <line x1="7.8999999999999995" y1="32.4" x2="12.799999999999999" y2="37.3" stroke="#000000" stroke-width="2.0" />
    <line x1="12.799999999999999" y1="32.4" x2="12.799999999999999" y2="42.199999999999996" stroke="#000000" stroke-width="2.0" />
    <line x1="3.0" y1="32.4" x2="3.0" y2="42.199999999999996" stroke="#000000" stroke-width="2.0" />
    <line x1="3.0" y1="42.199999999999996" x2="12.799999999999999" y2="51.99999999999999" stroke="#000000" stroke-width="2.0" />
    <line x1="12.799999999999999" y1="42.199999999999996" x2="12.799999999999999" y2="42.199999999999996" stroke="#000000" stroke-width="2.0" />
    <line x1="3.0" y1="47.099999999999994" x2="7.8999999999999995" y2="51.99999999999999" stroke="#000000" stroke-width="2.0" />
    <line x1="7.8999999999999995" y1="42.199999999999996" x2="12.799999999999999" y2="47.099999999999994" stroke="#000000" stroke-width="2.0" />
    <line x1="12.799999999999999" y1="42.199999999999996" x2="12.799999999999999" y2="51.99999999999999" stroke="#000000" stroke-width="2.0" />
    <line x1="3.0" y1="42.199999999999996" x2="3.0" y2="51.99999999999999" stroke="#000000" stroke-width="2.0" />
    <line x1="3.0" y1="51.99999999999999" x2="12.799999999999999" y2="61.8" stroke="#000000" stroke-width="2.0" />
    <line x1="12.799999999999999" y1="51.99999999999999" x2="12.799999999999999" y2="51.99999999999999" stroke="#000000" stroke-width="2.0" />
    <line x1="3.0" y1="56.89999999999999" x2="7.8999999999999995" y2="61.8" stroke="#000000" stroke-width="2.0" />
    <line x1="7.8999999999999995" y1="51.99999999999999" x2="12.799999999999999" y2="56.89999999999999" stroke="#000000" stroke-width="2.0" />
    <line x1="3.0" y1="51.99999999999999" x2="3.0" y2="61.8" stroke="#000000" stroke-width="2.0" />
    <line x1="3.0" y1="61.8" x2="12.799999999999999" y2="61.8" stroke="#000000" stroke-width="2.0" />
    <line x1="12.799999999999999" y1="51.99999999999999" x2="22.599999999999998" y2="61.8" stroke="#000000" stroke-width="2.0" />
    <line x1="22.599999999999998" y1="51.99999999999999" x2="22.599999999999998" y2="51.99999999999999" stroke="#000000" stroke-width="2.0" />
    <line x1="12.799999999999999" y1="56.89999999999999" x2="17.7" y2="61.8" stroke="#000000" stroke-width="2.0" />
    <line x1="17.7" y1="51.99999999999999" x2="22.599999999999998" y2="56.89999999999999" stroke="#000000" stroke-width="2.0" />
    <line x1="12.799999999999999" y1="61.8" x2="22.599999999999998" y2="61.8" stroke="#000000" stroke-width="2.0" />
    <line x1="12.799999999999999" y1="51.99999999999999" x2="22.599999999999998" y2="51.99999999999999" stroke="#000000" stroke-width="2.0" />
    <line x1="22.599999999999998" y1="51.99999999999999" x2="32.4" y2="61.8" stroke="#000000" stroke-width="2.0" />
    <line x1="32.4" y1="51.99999999999999" x2="32.4" y2="51.99999999999999" stroke="#000000" stroke-width="2.0" />
    <line x1="22.599999999999998" y1="56.89999999999999" x2="27.499999999999996" y2="61.8" stroke="#000000" stroke-width="2.0" />
    <line x1="27.499999999999996" y1="51.99999999999999" x2="32.4" y2="56.89999999999999" stroke="#000000" stroke-width="2.0" />
    <line x1="22.599999999999998" y1="61.8" x2="32.4" y2="61.8" stroke="#000000" stroke-width="2.0" />
    <line x1="22.599999999999998" y1="51.99999999999999" x2="32.4" y2="51.99999999999999" stroke="#000000" stroke-width="2.0" />
    <line x1="32.4" y1="51.99999999999999" x2="42.199999999999996" y2="61.8" stroke="#000000" stroke-width="2.0" />
    <line x1="42.199999999999996" y1="51.99999999999999" x2="42.199999999999996" y2="51.99999999999999" stroke="#000000" stroke-width="2.0" />
    <line x1="32.4" y1="56.89999999999999" x2="37.3" y2="61.8" stroke="#000000" stroke-width="2.0" />
    <line x1="37.3" y1="51.99999999999999" x2="42.199999999999996" y2="56.89999999999999" stroke="#000000" stroke-width="2.0" />
    <line x1="32.4" y1="61.8" x2="42.199999999999996" y2="61.8" stroke="#000000" stroke-width="2.0" />
    <line x1="32.4" y1="51.99999999999999" x2="42.199999999999996" y2="51.99999999999999" stroke="#000000" stroke-width="2.0" />
    <line x1="42.199999999999996" y1="51.99999999999999" x2="51.99999999999999" y2="61.8" stroke="#000000" stroke-width="2.0" />
    <line x1="51.99999999999999" y1="51.99999999999999" x2="51.99999999999999" y2="51.99999999999999" stroke="#000000" stroke-width="2.0" />
    <line x1="42.199999999999996" y1="56.89999999999999" x2="47.099999999999994" y2="61.8" stroke="#000000" stroke-width="2.0" />
    <line x1="47.099999999999994" y1="51.99999999999999" x2="51.99999999999999" y2="56.89999999999999" stroke="#000000" stroke-width="2.0" />
    <line x1="51.99999999999999" y1="51.99999999999999" x2="51.99999999999999" y2="61.8" stroke="#000000" stroke-width="2.0" />
    <line x1="42.199999999999996" y1="61.8" x2="51.99999999999999" y2="61.8" stroke="#000000" stroke-width="2.0" />
    <line x1="42.199999999999996" y1="51.99999999999999" x2="51.99999999999999" y2="51.99999999999999" stroke="#000000" stroke-width="2.0" />
    <line x1="12.799999999999999" y1="3.0" x2="22.599999999999998" y2="12.799999999999999" stroke="#000000" stroke-width="2.0" />
    <line x1="22.599999999999998" y1="3.0" x2="22.599999999999998" y2="3.0" stroke="#000000" stroke-width="2.0" />
    <line x1="12.799999999999999" y1="7.8999999999999995" x2="17.7" y2="12.799999999999999" stroke="#000000" stroke-width="2.0" />
    <line x1="17.7" y1="3.0" x2="22.599999999999998" y2="7.8999999999999995" stroke="#000000" stroke-width="2.0" />
    <line x1="12.799999999999999" y1="12.799999999999999" x2="22.599999999999998" y2="12.799999999999999" stroke="#000000" stroke-width="2.0" />
    <line x1="12.799999999999999" y1="3.0" x2="22.599999999999998" y2="3.0" stroke="#000000" stroke-width="2.0" />
    <line x1="22.599999999999998" y1="3.0" x2="32.4" y2="12.799999999999999" stroke="#000000" stroke-width="2.0" />
    <line x1="32.4" y1="3.0" x2="32.4" y2="3.0" stroke="#000000" stroke-width="2.0" />
    <line x1="22.599999999999998" y1="7.8999999999999995" x2="27.499999999999996" y2="12.799999999999999" stroke="#000000" stroke-width="2.0" />
    <line x1="27.499999999999996" y1="3.0" x2="32.4" y2="7.8999999999999995" stroke="#000000" stroke-width="2.0" />
    <line x1="22.599999999999998" y1="12.799999999999999" x2="32.4" y2="12.799999999999999" stroke="#000000" stroke-width="2.0" />
    <line x1="22.599999999999998" y1="3.0" x2="32.4" y2="3.0" stroke="#000000" stroke-width="2.0" />
    <line x1="32.4" y1="3.0" x2="42.199999999999996" y2="12.799999999999999" stroke="#000000" stroke-width="2.0" />
    <line x1="42.199999999999996" y1="3.0" x2="42.199999999999996" y2="3.0" stroke="#000000" stroke-width="2.0" />
    <line x1="32.4" y1="7.8999999999999995" x2="37.3" y2="12.799999999999999" stroke="#000000" stroke-width="2.0" />
    <line x1="37.3" y1="3.0" x2="42.199999999999996" y2="7.8999999999999995" stroke="#000000" stroke-width="2.0" />
    <line x1="32.4" y1="12.799999999999999" x2="42.199999999999996" y2="12.799999999999999" stroke="#000000" stroke-width="2.0" />
    <line x1="32.4" y1="3.0" x2="42.199999999999996" y2="3.0" stroke="#000000" stroke-width="2.0" />
    <line x1="42.199999999999996" y1="3.0" x2="51.99999999999999" y2="12.799999999999999" stroke="#000000" stroke-width="2.0" />
    <line x1="51.99999999999999" y1="3.0" x2="51.99999999999999" y2="3.0" stroke="#000000" stroke-width="2.0" />
    <line x1="42.199999999999996" y1="7.8999999999999995" x2="47.099999999999994" y2="12.799999999999999" stroke="#000000" stroke-width="2.0" />
    <line x1="47.099999999999994" y1="3.0" x2="51.99999999999999" y2="7.8999999999999995" stroke="#000000" stroke-width="2.0" />
    <line x1="51.99999999999999" y1="3.0" x2="51.99999999999999" y2="12.799999999999999" stroke="#000000" stroke-width="2.0" />
    <line x1="42.199999999999996" y1="12.799999999999999" x2="51.99999999999999" y2="12.799999999999999" stroke="#000000" stroke-width="2.0" />
    <line x1="42.199999999999996" y1="3.0" x2="51.99999999999999" y2="3.0" stroke="#000000" stroke-width="2.0" />
</g>
<g>
    <line x1="76.49999999999999" y1="4.96" x2="78.94999999999999" y2="10.9086" stroke="#000000" stroke-width="2.0" />
    <line x1="78.46" y1="10.9086" x2="74.05" y2="10.9086" stroke="#000000" stroke-width="2.0" />
    <line x1="74.05" y1="10.9086" x2="76.49999999999999" y2="4.96" stroke="#000000" stroke-width="2.0" />
    <line x1="81.39999999999999" y1="3.0" x2="81.39999999999999" y2="12.799999999999999" stroke="#000000" stroke-width="2.0" />
    <line x1="71.6" y1="3.0" x2="71.6" y2="12.799999999999999" stroke="#000000" stroke-width="2.0" />
    <line x1="71.6" y1="3.0" x2="81.39999999999999" y2="3.0" stroke="#000000" stroke-width="2.0" />
    <line x1="76.49999999999999" y1="14.759999999999998" x2="78.94999999999999" y2="20.708599999999997" stroke="#000000" stroke-width="2.0" />
    <line x1="78.46" y1="20.708599999999997" x2="74.05" y2="20.708599999999997" stroke="#000000" stroke-width="2.0" />
    <line x1="74.05" y1="20.708599999999997" x2="76.49999999999999" y2="14.759999999999998" stroke="#000000" stroke-width="2.0" />
    <line x1="71.6" y1="12.799999999999999" x2="71.6" y2="22.599999999999998" stroke="#000000" stroke-width="2.0" />
    <line x1="71.6" y1="22.599999999999998" x2="81.39999999999999" y2="22.599999999999998" stroke="#000000" stroke-width="2.0" />
    <line x1="86.3" y1="14.759999999999998" x2="88.74999999999999" y2="20.708599999999997" stroke="#000000" stroke-width="2.0" />
    <line x1="88.25999999999998" y1="20.708599999999997" x2="83.85" y2="20.708599999999997" stroke="#000000" stroke-width="2.0" />
    <line x1="83.85" y1="20.708599999999997" x2="86.3" y2="14.759999999999998" stroke="#000000" stroke-width="2.0" />
    <line x1="91.19999999999999" y1="12.799999999999999" x2="91.19999999999999" y2="22.599999999999998" stroke="#000000" stroke-width="2.0" />
    <line x1="81.39999999999999" y1="12.799999999999999" x2="91.19999999999999" y2="12.799999999999999" stroke="#000000" stroke-width="2.0" />
    <line x1="86.3" y1="24.56" x2="88.74999999999999" y2="30.508599999999998" stroke="#000000" stroke-width="2.0" />
    <line x1="88.25999999999998" y1="30.508599999999998" x2="83.85" y2="30.508599999999998" stroke="#000000" stroke-width="2.0" />
    <line x1="83.85" y1="30.508599999999998" x2="86.3" y2="24.56" stroke="#000000" stroke-width="2.0" />
    <line x1="81.39999999999999" y1="22.599999999999998" x2="81.39999999999999" y2="32.4" stroke="#000000" stroke-width="2.0" />
    <line x1="81.39999999999999" y1="32.4" x2="91.19999999999999" y2="32.4" stroke="#000000" stroke-width="2.0" />
    <line x1="96.1" y1="24.56" x2="98.54999999999998" y2="30.508599999999998" stroke="#000000" stroke-width="2.0" />
    <line x1="98.05999999999999" y1="30.508599999999998" x2="93.64999999999999" y2="30.508599999999998" stroke="#000000" stroke-width="2.0" />
    <line x1="93.64999999999999" y1="30.508599999999998" x2="96.1" y2="24.56" stroke="#000000" stroke-width="2.0" />
    <line x1="91.19999999999999" y1="22.599999999999998" x2="100.99999999999999" y2="22.599999999999998" stroke="#000000" stroke-width="2.0" />
    <line x1="96.1" y1="34.36" x2="98.54999999999998" y2="40.3086" stroke="#000000" stroke-width="2.0" />
    <line x1="98.05999999999999" y1="40.3086" x2="93.64999999999999" y2="40.3086" stroke="#000000" stroke-width="2.0" />
    <line x1="93.64999999999999" y1="40.3086" x2="96.1" y2="34.36" stroke="#000000" stroke-width="2.0" />
    <line x1="100.99999999999999" y1="32.4" x2="100.99999999999999" y2="42.199999999999996" stroke="#000000" stroke-width="2.0" />
    <line x1="91.19999999999999" y1="32.4" x2="91.19999999999999" y2="42.199999999999996" stroke="#000000" stroke-width="2.0" />
    <line x1="96.1" y1="44.16" x2="98.54999999999998" y2="50.108599999999996" stroke="#000000" stroke-width="2.0" />
    <line x1="98.05999999999999" y1="50.108599999999996" x2="93.64999999999999" y2="50.108599999999996" stroke="#000000" stroke-width="2.0" />
    <line x1="93.64999999999999" y1="50.108599999999996" x2="96.1" y2="44.16" stroke="#000000" stroke-width="2.0" />
    <line x1="100.99999999999999" y1="42.199999999999996" x2="100.99999999999999" y2="51.99999999999999" stroke="#000000" stroke-width="2.0" />
    <line x1="91.19999999999999" y1="42.199999999999996" x2="91.19999999999999" y2="51.99999999999999" stroke="#000000" stroke-width="2.0" />
    <line x1="96.1" y1="53.959999999999994" x2="98.54999999999998" y2="59.9086" stroke="#000000" stroke-width="2.0" />
    <line x1="98.05999999999999" y1="59.9086" x2="93.64999999999999" y2="59.9086" stroke="#000000" stroke-width="2.0" />
    <line x1="93.64999999999999" y1="59.9086" x2="96.1" y2="53.959999999999994" stroke="#000000" stroke-width="2.0" />
    <line x1="100.99999999999999" y1="51.99999999999999" x2="100.99999999999999" y2="61.8" stroke="#000000" stroke-width="2.0" />
    <line x1="91.19999999999999" y1="51.99999999999999" x2="91.19999999999999" y2="61.8" stroke="#000000" stroke-width="2.0" />
    <line x1="91.19999999999999" y1="61.8" x2="100.99999999999999" y2="61.8" stroke="#000000" stroke-width="2.0" />
    <line x1="105.89999999999999" y1="24.56" x2="108.35" y2="30.508599999999998" stroke="#000000" stroke-width="2.0" />
    <line x1="107.85999999999999" y1="30.508599999999998" x2="103.44999999999999" y2="30.508599999999998" stroke="#000000" stroke-width="2.0" />
    <line x1="103.44999999999999" y1="30.508599999999998" x2="105.89999999999999" y2="24.56" stroke="#000000" stroke-width="2.0" />
    <line x1="110.79999999999998" y1="22.599999999999998" x2="110.79999999999998" y2="32.4" stroke="#000000" stroke-width="2.0" />
    <line x1="100.99999999999999" y1="32.4" x2="110.79999999999998" y2="32.4" stroke="#000000" stroke-width="2.0" />
    <line x1="105.89999999999999" y1="14.759999999999998" x2="108.35" y2="20.708599999999997" stroke="#000000" stroke-width="2.0" />
    <line x1="107.85999999999999" y1="20.708599999999997" x2="103.44999999999999" y2="20.708599999999997" stroke="#000000" stroke-width="2.0" />
    <line x1="103.44999999999999" y1="20.708599999999997" x2="105.89999999999999" y2="14.759999999999998" stroke="#000000" stroke-width="2.0" />
    <line x1="100.99999999999999" y1="12.799999999999999" x2="100.99999999999999" y2="22.599999999999998" stroke="#000000" stroke-width="2.0" />
    <line x1="100.99999999999999" y1="12.799999999999999" x2="110.79999999999998" y2="12.799999999999999" stroke="#000000" stroke-width="2.0" />
    <line x1="115.69999999999999" y1="14.759999999999998" x2="118.14999999999999" y2="20.708599999999997" stroke="#000000" stroke-width="2.0" />
    <line x1="117.65999999999998" y1="20.708599999999997" x2="113.24999999999999" y2="20.708599999999997" stroke="#000000" stroke-width="2.0" />
    <line x1="113.24999999999999" y1="20.708599999999997" x2="115.69999999999999" y2="14.759999999999998" stroke="#000000" stroke-width="2.0" />
    <line x1="120.6" y1="12.799999999999999" x2="120.6" y2="22.599999999999998" stroke="#000000" stroke-width="2.0" />
    <line x1="110.79999999999998" y1="22.599999999999998" x2="120.6" y2="22.599999999999998" stroke="#000000" stroke-width="2.0" />
    <line x1="115.69999999999999" y1="4.96" x2="118.14999999999999" y2="10.9086" stroke="#000000" stroke-width="2.0" />
    <line x1="117.65999999999998" y1="10.9086" x2="113.24999999999999" y2="10.9086" stroke="#000000" stroke-width="2.0" />
    <line x1="113.24999999999999" y1="10.9086" x2="115.69999999999999" y2="4.96" stroke="#000000" stroke-width="2.0" />
    <line x1="120.6" y1="3.0" x2="120.6" y2="12.799999999999999" stroke="#000000" stroke-width="2.0" />
    <line x1="110.79999999999998" y1="3.0" x2="110.79999999999998" y2="12.799999999999999" stroke="#000000" stroke-width="2.0" />
    <line x1="110.79999999999998" y1="3.0" x2="120.6" y2="3.0" stroke="#000000" stroke-width="2.0" />
</g>
<g>
    <line x1="130.39999999999998" y1="4.633333333333333" x2="140.2" y2="4.633333333333333" stroke="#000000" stroke-width="2.0" />
    <line x1="130.39999999999998" y1="9.533333333333331" x2="140.2" y2="9.533333333333331" stroke="#000000" stroke-width="2.0" />
    <line x1="140.2" y1="3.0" x2="140.2" y2="12.799999999999999" stroke="#000000" stroke-width="2.0" />
    <line x1="130.39999999999998" y1="3.0" x2="130.39999999999998" y2="12.799999999999999" stroke="#000000" stroke-width="2.0" />
    <line x1="130.39999999999998" y1="3.0" x2="140.2" y2="3.0" stroke="#000000" stroke-width="2.0" />
    <line x1="130.39999999999998" y1="14.433333333333334" x2="140.2" y2="14.433333333333334" stroke="#000000" stroke-width="2.0" />
    <line x1="130.39999999999998" y1="19.33333333333333" x2="140.2" y2="19.33333333333333" stroke="#000000" stroke-width="2.0" />
    <line x1="130.39999999999998" y1="12.799999999999999" x2="130.39999999999998" y2="22.599999999999998" stroke="#000000" stroke-width="2.0" />
    <line x1="130.39999999999998" y1="24.23333333333333" x2="140.2" y2="24.23333333333333" stroke="#000000" stroke-width="2.0" />
    <line x1="130.39999999999998" y1="29.13333333333333" x2="140.2" y2="29.13333333333333" stroke="#000000" stroke-width="2.0" />
    <line x1="130.39999999999998" y1="22.599999999999998" x2="130.39999999999998" y2="32.4" stroke="#000000" stroke-width="2.0" />
    <line x1="130.39999999999998" y1="34.03333333333333" x2="140.2" y2="34.03333333333333" stroke="#000000" stroke-width="2.0" />
    <line x1="130.39999999999998" y1="38.93333333333333" x2="140.2" y2="38.93333333333333" stroke="#000000" stroke-width="2.0" />
    <line x1="140.2" y1="32.4" x2="140.2" y2="42.199999999999996" stroke="#000000" stroke-width="2.0" />
    <line x1="130.39999999999998" y1="32.4" x2="130.39999999999998" y2="42.199999999999996" stroke="#000000" stroke-width="2.0" />
    <line x1="130.39999999999998" y1="43.83333333333333" x2="140.2" y2="43.83333333333333" stroke="#000000" stroke-width="2.0" />
    <line x1="130.39999999999998" y1="48.733333333333334" x2="140.2" y2="48.733333333333334" stroke="#000000" stroke-width="2.0" />
    <line x1="140.2" y1="42.199999999999996" x2="140.2" y2="51.99999999999999" stroke="#000000" stroke-width="2.0" />
    <line x1="130.39999999999998" y1="42.199999999999996" x2="130.39999999999998" y2="51.99999999999999" stroke="#000000" stroke-width="2.0" />
    <line x1="130.39999999999998" y1="53.63333333333333" x2="140.2" y2="53.63333333333333" stroke="#000000" stroke-width="2.0" />
    <line x1="130.39999999999998" y1="58.53333333333333" x2="140.2" y2="58.53333333333333" stroke="#000000" stroke-width="2.0" />
    <line x1="140.2" y1="51.99999999999999" x2="140.2" y2="61.8" stroke="#000000" stroke-width="2.0" />
    <line x1="130.39999999999998" y1="51.99999999999999" x2="130.39999999999998" y2="61.8" stroke="#000000" stroke-width="2.0" />
    <line x1="130.39999999999998" y1="61.8" x2="140.2" y2="61.8" stroke="#000000" stroke-width="2.0" />
    <line x1="140.2" y1="24.23333333333333" x2="149.99999999999997" y2="24.23333333333333" stroke="#000000" stroke-width="2.0" />
    <line x1="140.2" y1="29.13333333333333" x2="149.99999999999997" y2="29.13333333333333" stroke="#000000" stroke-width="2.0" />
    <line x1="140.2" y1="32.4" x2="149.99999999999997" y2="32.4" stroke="#000000" stroke-width="2.0" />
    <line x1="140.2" y1="14.433333333333334" x2="149.99999999999997" y2="14.433333333333334" stroke="#000000" stroke-width="2.0" />
    <line x1="140.2" y1="19.33333333333333" x2="149.99999999999997" y2="19.33333333333333" stroke="#000000" stroke-width="2.0" />
    <line x1="149.99999999999997" y1="12.799999999999999" x2="149.99999999999997" y2="22.599999999999998" stroke="#000000" stroke-width="2.0" />
    <line x1="140.2" y1="12.799999999999999" x2="149.99999999999997" y2="12.799999999999999" stroke="#000000" stroke-width="2.0" />
    <line x1="149.99999999999997" y1="24.23333333333333" x2="159.79999999999998" y2="24.23333333333333" stroke="#000000" stroke-width="2.0" />
    <line x1="149.99999999999997" y1="29.13333333333333" x2="159.79999999999998" y2="29.13333333333333" stroke="#000000" stroke-width="2.0" />
    <line x1="149.99999999999997" y1="22.599999999999998" x2="159.79999999999998" y2="22.599999999999998" stroke="#000000" stroke-width="2.0" />
    <line x1="149.99999999999997" y1="34.03333333333333" x2="159.79999999999998" y2="34.03333333333333" stroke="#000000" stroke-width="2.0" />
    <line x1="149.99999999999997" y1="38.93333333333333" x2="159.79999999999998" y2="38.93333333333333" stroke="#000000" stroke-width="2.0" />
    <line x1="149.99999999999997" y1="32.4" x2="149.99999999999997" y2="42.199999999999996" stroke="#000000" stroke-width="2.0" />
    <line x1="149.99999999999997" y1="42.199999999999996" x2="159.79999999999998" y2="42.199999999999996" stroke="#000000" stroke-width="2.0" />
    <line x1="159.79999999999998" y1="34.03333333333333" x2="169.6" y2="34.03333333333333" stroke="#000000" stroke-width="2.0" />
    <line x1="159.79999999999998" y1="38.93333333333333" x2="169.6" y2="38.93333333333333" stroke="#000000" stroke-width="2.0" />
    <line x1="159.79999999999998" y1="42.199999999999996" x2="169.6" y2="42.199999999999996" stroke="#000000" stroke-width="2.0" />
    <line x1="159.79999999999998" y1="24.23333333333333" x2="169.6" y2="24.23333333333333" stroke="#000000" stroke-width="2.0" />
    <line x1="159.79999999999998" y1="29.13333333333333" x2="169.6" y2="29.13333333333333" stroke="#000000" stroke-width="2.0" />
    <line x1="169.6" y1="22.599999999999998" x2="169.6" y2="32.4" stroke="#000000" stroke-width="2.0" />
    <line x1="159.79999999999998" y1="22.599999999999998" x2="169.6" y2="22.599999999999998" stroke="#000000" stroke-width="2.0" />
    <line x1="169.6" y1="34.03333333333333" x2="179.39999999999998" y2="34.03333333333333" stroke="#000000" stroke-width="2.0" />
    <line x1="169.6" y1="38.93333333333333" x2="179.39999999999998" y2="38.93333333333333" stroke="#000000" stroke-width="2.0" />
    <line x1="169.6" y1="32.4" x2="179.39999999999998" y2="32.4" stroke="#000000" stroke-width="2.0" />
    <line x1="169.6" y1="43.83333333333333" x2="179.39999999999998" y2="43.83333333333333" stroke="#000000" stroke-width="2.0" />
    <line x1="169.6" y1="48.733333333333334" x2="179.39999999999998" y2="48.733333333333334" stroke="#000000" stroke-width="2.0" />
    <line x1="169.6" y1="42.199999999999996" x2="169.6" y2="51.99999999999999" stroke="#000000" stroke-width="2.0" />
    <line x1="169.6" y1="51.99999999999999" x2="179.39999999999998" y2="51.99999999999999" stroke="#000000" stroke-width="2.0" />
    <line x1="179.39999999999998" y1="43.83333333333333" x2="189.2" y2="43.83333333333333" stroke="#000000" stroke-width="2.0" />
    <line x1="179.39999999999998" y1="48.733333333333334" x2="189.2" y2="48.733333333333334" stroke="#000000" stroke-width="2.0" />
    <line x1="189.2" y1="42.199999999999996" x2="189.2" y2="51.99999999999999" stroke="#000000" stroke-width="2.0" />
    <line x1="179.39999999999998" y1="34.03333333333333" x2="189.2" y2="34.03333333333333" stroke="#000000" stroke-width="2.0" />
    <line x1="179.39999999999998" y1="38.93333333333333" x2="189.2" y2="38.93333333333333" stroke="#000000" stroke-width="2.0" />
    <line x1="189.2" y1="32.4" x2="189.2" y2="42.199999999999996" stroke="#000000" stroke-width="2.0" />
    <line x1="179.39999999999998" y1="24.23333333333333" x2="189.2" y2="24.23333333333333" stroke="#000000" stroke-width="2.0" />
    <line x1="179.39999999999998" y1="29.13333333333333" x2="189.2" y2="29.13333333333333" stroke="#000000" stroke-width="2.0" />
    <line x1="189.2" y1="22.599999999999998" x2="189.2" y2="32.4" stroke="#000000" stroke-width="2.0" />
    <line x1="179.39999999999998" y1="22.599999999999998" x2="179.39999999999998" y2="32.4" stroke="#000000" stroke-width="2.0" />
    <line x1="179.39999999999998" y1="14.433333333333334" x2="189.2" y2="14.433333333333334" stroke="#000000" stroke-width="2.0" />
    <line x1="179.39999999999998" y1="19.33333333333333" x2="189.2" y2="19.33333333333333" stroke="#000000" stroke-width="2.0" />
    <line x1="189.2" y1="12.799999999999999" x2="189.2" y2="22.599999999999998" stroke="#000000" stroke-width="2.0" />
    <line x1="179.39999999999998" y1="12.799999999999999" x2="179.39999999999998" y2="22.599999999999998" stroke="#000000" stroke-width="2.0" />
    <line x1="179.39999999999998" y1="4.633333333333333" x2="189.2" y2="4.633333333333333" stroke="#000000" stroke-width="2.0" />
    <line x1="179.39999999999998" y1="9.533333333333331" x2="189.2" y2="9.533333333333331" stroke="#000000" stroke-width="2.0" />
    <line x1="189.2" y1="3.0" x2="189.2" y2="12.799999999999999" stroke="#000000" stroke-width="2.0" />
    <line x1="179.39999999999998" y1="3.0" x2="179.39999999999998" y2="12.799999999999999" stroke="#000000" stroke-width="2.0" />
    <line x1="179.39999999999998" y1="3.0" x2="189.2" y2="3.0" stroke="#000000" stroke-width="2.0" />
    <line x1="179.39999999999998" y1="53.63333333333333" x2="189.2" y2="53.63333333333333" stroke="#000000" stroke-width="2.0" />
    <line x1="179.39999999999998" y1="58.53333333333333" x2="189.2" y2="58.53333333333333" stroke="#000000" stroke-width="2.0" />
    <line x1="189.2" y1="51.99999999999999" x2="189.2" y2="61.8" stroke="#000000" stroke-width="2.0" />
    <line x1="179.39999999999998" y1="51.99999999999999" x2="179.39999999999998" y2="61.8" stroke="#000000" stroke-width="2.0" />
    <line x1="179.39999999999998" y1="61.8" x2="189.2" y2="61.8" stroke="#000000" stroke-width="2.0" />
</g>
<g>
    <line x1="208.79999999999998" y1="3.0" x2="218.59999999999997" y2="12.799999999999999" stroke="#000000" stroke-width="2.0" />
    <line x1="218.59999999999997" y1="3.0" x2="218.59999999999997" y2="3.0" stroke="#000000" stroke-width="2.0" />
    <line x1="208.79999999999998" y1="3.0" x2="208.79999999999998" y2="12.799999999999999" stroke="#000000" stroke-width="2.0" />
    <line x1="208.79999999999998" y1="3.0" x2="218.59999999999997" y2="3.0" stroke="#000000" stroke-width="2.0" />
    <line x1="208.79999999999998" y1="12.799999999999999" x2="218.59999999999997" y2="22.599999999999998" stroke="#000000" stroke-width="2.0" />
    <line x1="218.59999999999997" y1="12.799999999999999" x2="218.59999999999997" y2="12.799999999999999" stroke="#000000" stroke-width="2.0" />
    <line x1="218.59999999999997" y1="12.799999999999999" x2="218.59999999999997" y2="22.599999999999998" stroke="#000000" stroke-width="2.0" />
    <line x1="208.79999999999998" y1="22.599999999999998" x2="218.59999999999997" y2="22.599999999999998" stroke="#000000" stroke-width="2.0" />
    <line x1="198.99999999999997" y1="12.799999999999999" x2="208.79999999999998" y2="22.599999999999998" stroke="#000000" stroke-width="2.0" />
    <line x1="208.79999999999998" y1="12.799999999999999" x2="208.79999999999998" y2="12.799999999999999" stroke="#000000" stroke-width="2.0" />
    <line x1="198.99999999999997" y1="12.799999999999999" x2="198.99999999999997" y2="22.599999999999998" stroke="#000000" stroke-width="2.0" />
    <line x1="198.99999999999997" y1="12.799999999999999" x2="208.79999999999998" y2="12.799999999999999" stroke="#000000" stroke-width="2.0" />
    <line x1="198.99999999999997" y1="22.599999999999998" x2="208.79999999999998" y2="32.4" stroke="#000000" stroke-width="2.0" />
    <line x1="208.79999999999998" y1="22.599999999999998" x2="208.79999999999998" y2="22.599999999999998" stroke="#000000" stroke-width="2.0" />
    <line x1="208.79999999999998" y1="22.599999999999998" x2="208.79999999999998" y2="32.4" stroke="#000000" stroke-width="2.0" />
    <line x1="198.99999999999997" y1="22.599999999999998" x2="198.99999999999997" y2="32.4" stroke="#000000" stroke-width="2.0" />
    <line x1="198.99999999999997" y1="32.4" x2="208.79999999999998" y2="42.199999999999996" stroke="#000000" stroke-width="2.0" />
    <line x1="208.79999999999998" y1="32.4" x2="208.79999999999998" y2="32.4" stroke="#000000" stroke-width="2.0" />
    <line x1="198.99999999999997" y1="32.4" x2="198.99999999999997" y2="42.199999999999996" stroke="#000000" stroke-width="2.0" />
    <line x1="198.99999999999997" y1="42.199999999999996" x2="208.79999999999998" y2="51.99999999999999" stroke="#000000" stroke-width="2.0" />
    <line x1="208.79999999999998" y1="42.199999999999996" x2="208.79999999999998" y2="42.199999999999996" stroke="#000000" stroke-width="2.0" />
    <line x1="208.79999999999998" y1="42.199999999999996" x2="208.79999999999998" y2="51.99999999999999" stroke="#000000" stroke-width="2.0" />
    <line x1="198.99999999999997" y1="42.199999999999996" x2="198.99999999999997" y2="51.99999999999999" stroke="#000000" stroke-width="2.0" />
    <line x1="198.99999999999997" y1="51.99999999999999" x2="208.79999999999998" y2="61.8" stroke="#000000" stroke-width="2.0" />
    <line x1="208.79999999999998" y1="51.99999999999999" x2="208.79999999999998" y2="51.99999999999999" stroke="#000000" stroke-width="2.0" />
    <line x1="208.79999999999998" y1="51.99999999999999" x2="208.79999999999998" y2="61.8" stroke="#000000" stroke-width="2.0" />
    <line x1="198.99999999999997" y1="51.99999999999999" x2="198.99999999999997" y2="61.8" stroke="#000000" stroke-width="2.0" />
    <line x1="198.99999999999997" y1="61.8" x2="208.79999999999998" y2="61.8" stroke="#000000" stroke-width="2.0" />
    <line x1="208.79999999999998" y1="32.4" x2="218.59999999999997" y2="42.199999999999996" stroke="#000000" stroke-width="2.0" />
    <line x1="218.59999999999997" y1="32.4" x2="218.59999999999997" y2="32.4" stroke="#000000" stroke-width="2.0" />
    <line x1="208.79999999999998" y1="42.199999999999996" x2="218.59999999999997" y2="42.199999999999996" stroke="#000000" stroke-width="2.0" />
    <line x1="208.79999999999998" y1="32.4" x2="218.59999999999997" y2="32.4" stroke="#000000" stroke-width="2.0" />
    <line x1="218.59999999999997" y1="32.4" x2="228.39999999999998" y2="42.199999999999996" stroke="#000000" stroke-width="2.0" />
    <line x1="228.39999999999998" y1="32.4" x2="228.39999999999998" y2="32.4" stroke="#000000" stroke-width="2.0" />
    <line x1="218.59999999999997" y1="42.199999999999996" x2="228.39999999999998" y2="42.199999999999996" stroke="#000000" stroke-width="2.0" />
    <line x1="218.59999999999997" y1="32.4" x2="228.39999999999998" y2="32.4" stroke="#000000" stroke-width="2.0" />
    <line x1="228.39999999999998" y1="32.4" x2="238.2" y2="42.199999999999996" stroke="#000000" stroke-width="2.0" />
    <line x1="238.2" y1="32.4" x2="238.2" y2="32.4" stroke="#000000" stroke-width="2.0" />
    <line x1="228.39999999999998" y1="42.199999999999996" x2="238.2" y2="42.199999999999996" stroke="#000000" stroke-width="2.0" />
    <line x1="228.39999999999998" y1="32.4" x2="238.2" y2="32.4" stroke="#000000" stroke-width="2.0" />
    <line x1="238.2" y1="32.4" x2="247.99999999999997" y2="42.199999999999996" stroke="#000000" stroke-width="2.0" />
    <line x1="247.99999999999997" y1="32.4" x2="247.99999999999997" y2="32.4" stroke="#000000" stroke-width="2.0" />
    <line x1="238.2" y1="42.199999999999996" x2="247.99999999999997" y2="42.199999999999996" stroke="#000000" stroke-width="2.0" />
    <line x1="238.2" y1="32.4" x2="247.99999999999997" y2="32.4" stroke="#000000" stroke-width="2.0" />
    <line x1="247.99999999999997" y1="32.4" x2="257.79999999999995" y2="42.199999999999996" stroke="#000000" stroke-width="2.0" />
    <line x1="257.79999999999995" y1="32.4" x2="257.79999999999995" y2="32.4" stroke="#000000" stroke-width="2.0" />
    <line x1="257.79999999999995" y1="32.4" x2="257.79999999999995" y2="42.199999999999996" stroke="#000000" stroke-width="2.0" />
    <line x1="247.99999999999997" y1="22.599999999999998" x2="257.79999999999995" y2="32.4" stroke="#000000" stroke-width="2.0" />
    <line x1="257.79999999999995" y1="22.599999999999998" x2="257.79999999999995" y2="22.599999999999998" stroke="#000000" stroke-width="2.0" />
    <line x1="257.79999999999995" y1="22.599999999999998" x2="257.79999999999995" y2="32.4" stroke="#000000" stroke-width="2.0" />
    <line x1="247.99999999999997" y1="22.599999999999998" x2="247.99999999999997" y2="32.4" stroke="#000000" stroke-width="2.0" />
    <line x1="247.99999999999997" y1="12.799999999999999" x2="257.79999999999995" y2="22.599999999999998" stroke="#000000" stroke-width="2.0" />
    <line x1="257.79999999999995" y1="12.799999999999999" x2="257.79999999999995" y2="12.799999999999999" stroke="#000000" stroke-width="2.0" />
    <line x1="257.79999999999995" y1="12.799999999999999" x2="257.79999999999995" y2="22.599999999999998" stroke="#000000" stroke-width="2.0" />
    <line x1="247.99999999999997" y1="12.799999999999999" x2="257.79999999999995" y2="12.799999999999999" stroke="#000000" stroke-width="2.0" />
    <line x1="238.2" y1="12.799999999999999" x2="247.99999999999997" y2="22.599999999999998" stroke="#000000" stroke-width="2.0" />
    <line x1="247.99999999999997" y1="12.799999999999999" x2="247.99999999999997" y2="12.799999999999999" stroke="#000000" stroke-width="2.0" />
    <line x1="238.2" y1="12.799999999999999" x2="238.2" y2="22.599999999999998" stroke="#000000" stroke-width="2.0" />
    <line x1="238.2" y1="22.599999999999998" x2="247.99999999999997" y2="22.599999999999998" stroke="#000000" stroke-width="2.0" />
    <line x1="238.2" y1="3.0" x2="247.99999999999997" y2="12.799999999999999" stroke="#000000" stroke-width="2.0" />
    <line x1="247.99999999999997" y1="3.0" x2="247.99999999999997" y2="3.0" stroke="#000000" stroke-width="2.0" />
    <line x1="247.99999999999997" y1="3.0" x2="247.99999999999997" y2="12.799999999999999" stroke="#000000" stroke-width="2.0" />
    <line x1="238.2" y1="3.0" x2="247.99999999999997" y2="3.0" stroke="#000000" stroke-width="2.0" />
    <line x1="228.39999999999998" y1="3.0" x2="238.2" y2="12.799999999999999" stroke="#000000" stroke-width="2.0" />
    <line x1="238.2" y1="3.0" x2="238.2" y2="3.0" stroke="#000000" stroke-width="2.0" />
    <line x1="228.39999999999998" y1="12.799999999999999" x2="238.2" y2="12.799999999999999" stroke="#000000" stroke-width="2.0" />
    <line x1="228.39999999999998" y1="3.0" x2="238.2" y2="3.0" stroke="#000000" stroke-width="2.0" />
    <line x1="218.59999999999997" y1="3.0" x2="228.39999999999998" y2="12.799999999999999" stroke="#000000" stroke-width="2.0" />
    <line x1="228.39999999999998" y1="3.0" x2="228.39999999999998" y2="3.0" stroke="#000000" stroke-width="2.0" />
    <line x1="218.59999999999997" y1="12.799999999999999" x2="228.39999999999998" y2="12.799999999999999" stroke="#000000" stroke-width="2.0" />
    <line x1="218.59999999999997" y1="3.0" x2="228.39999999999998" y2="3.0" stroke="#000000" stroke-width="2.0" />
    <line x1="247.99999999999997" y1="42.199999999999996" x2="257.79999999999995" y2="51.99999999999999" stroke="#000000" stroke-width="2.0" />
    <line x1="257.79999999999995" y1="42.199999999999996" x2="257.79999999999995" y2="42.199999999999996" stroke="#000000" stroke-width="2.0" />
    <line x1="257.79999999999995" y1="42.199999999999996" x2="257.79999999999995" y2="51.99999999999999" stroke="#000000" stroke-width="2.0" />
    <line x1="247.99999999999997" y1="42.199999999999996" x2="247.99999999999997" y2="51.99999999999999" stroke="#000000" stroke-width="2.0" />
    <line x1="247.99999999999997" y1="51.99999999999999" x2="257.79999999999995" y2="61.8" stroke="#000000" stroke-width="2.0" />
    <line x1="257.79999999999995" y1="51.99999999999999" x2="257.79999999999995" y2="51.99999999999999" stroke="#000000" stroke-width="2.0" />
    <line x1="257.79999999999995" y1="51.99999999999999" x2="257.79999999999995" y2="61.8" stroke="#000000" stroke-width="2.0" />
    <line x1="247.99999999999997" y1="51.99999999999999" x2="247.99999999999997" y2="61.8" stroke="#000000" stroke-width="2.0" />
    <line x1="247.99999999999997" y1="61.8" x2="257.79999999999995" y2="61.8" stroke="#000000" stroke-width="2.0" />
</g>
<g>
    <line x1="51.99999999999999" y1="12.799999999999999" x2="61.8" y2="22.599999999999998" stroke="#000000" stroke-width="2.0" />
    <line x1="61.8" y1="12.799999999999999" x2="61.8" y2="12.799999999999999" stroke="#000000" stroke-width="2.0" />
    <line x1="51.99999999999999" y1="17.7" x2="56.89999999999999" y2="22.599999999999998" stroke="#000000" stroke-width="2.0" />
    <line x1="56.89999999999999" y1="12.799999999999999" x2="61.8" y2="17.7" stroke="#000000" stroke-width="2.0" />
    <line x1="61.8" y1="12.799999999999999" x2="61.8" y2="22.599999999999998" stroke="#000000" stroke-width="2.0" />
    <line x1="51.99999999999999" y1="12.799999999999999" x2="51.99999999999999" y2="22.599999999999998" stroke="#000000" stroke-width="2.0" />
    <line x1="51.99999999999999" y1="12.799999999999999" x2="61.8" y2="12.799999999999999" stroke="#000000" stroke-width="2.0" />
    <line x1="51.99999999999999" y1="22.599999999999998" x2="61.8" y2="32.4" stroke="#000000" stroke-width="2.0" />
    <line x1="61.8" y1="22.599999999999998" x2="61.8" y2="22.599999999999998" stroke="#000000" stroke-width="2.0" />
    <line x1="51.99999999999999" y1="27.499999999999996" x2="56.89999999999999" y2="32.4" stroke="#000000" stroke-width="2.0" />
    <line x1="56.89999999999999" y1="22.599999999999998" x2="61.8" y2="27.499999999999996" stroke="#000000" stroke-width="2.0" />
    <line x1="61.8" y1="22.599999999999998" x2="61.8" y2="32.4" stroke="#000000" stroke-width="2.0" />
    <line x1="51.99999999999999" y1="22.599999999999998" x2="51.99999999999999" y2="32.4" stroke="#000000" stroke-width="2.0" />
    <line x1="51.99999999999999" y1="32.4" x2="61.8" y2="42.199999999999996" stroke="#000000" stroke-width="2.0" />
    <line x1="61.8" y1="32.4" x2="61.8" y2="32.4" stroke="#000000" stroke-width="2.0" />
    <line x1="51.99999999999999" y1="37.3" x2="56.89999999999999" y2="42.199999999999996" stroke="#000000" stroke-width="2.0" />
    <line x1="56.89999999999999" y1="32.4" x2="61.8" y2="37.3" stroke="#000000" stroke-width="2.0" />
    <line x1="61.8" y1="32.4" x2="61.8" y2="42.199999999999996" stroke="#000000" stroke-width="2.0" />
    <line x1="51.99999999999999" y1="32.4" x2="51.99999999999999" y2="42.199999999999996" stroke="#000000" stroke-width="2.0" />
    <line x1="51.99999999999999" y1="42.199999999999996" x2="61.8" y2="51.99999999999999" stroke="#000000" stroke-width="2.0" />
    <line x1="61.8" y1="42.199999999999996" x2="61.8" y2="42.199999999999996" stroke="#000000" stroke-width="2.0" />
    <line x1="51.99999999999999" y1="47.099999999999994" x2="56.89999999999999" y2="51.99999999999999" stroke="#000000" stroke-width="2.0" />
    <line x1="56.89999999999999" y1="42.199999999999996" x2="61.8" y2="47.099999999999994" stroke="#000000" stroke-width="2.0" />
    <line x1="61.8" y1="42.199999999999996" x2="61.8" y2="51.99999999999999" stroke="#000000" stroke-width="2.0" />
    <line x1="51.99999999999999" y1="42.199999999999996" x2="51.99999999999999" y2="51.99999999999999" stroke="#000000" stroke-width="2.0" />
    <line x1="51.99999999999999" y1="51.99999999999999" x2="61.8" y2="51.99999999999999" stroke="#000000" stroke-width="2.0" />
</g>
<g>
    <line x1="12.799999999999999" y1="71.6" x2="22.599999999999998" y2="81.39999999999999" stroke="#000000" stroke-width="2.0" />
    <line x1="22.599999999999998" y1="71.6" x2="22.599999999999998" y2="71.6" stroke="#000000" stroke-width="2.0" />
    <line x1="12.799999999999999" y1="71.6" x2="12.799999999999999" y2="71.6" stroke="#000000" stroke-width="2.0" />
    <line x1="12.799999999999999" y1="81.39999999999999" x2="22.599999999999998" y2="71.6" stroke="#000000" stroke-width="2.0" />
    <line x1="12.799999999999999" y1="71.6" x2="12.799999999999999" y2="81.39999999999999" stroke="#000000" stroke-width="2.0" />
    <line x1="12.799999999999999" y1="81.39999999999999" x2="22.599999999999998" y2="81.39999999999999" stroke="#000000" stroke-width="2.0" />
    <line x1="12.799999999999999" y1="71.6" x2="22.599999999999998" y2="71.6" stroke="#000000" stroke-width="2.0" />
    <line x1="22.599999999999998" y1="71.6" x2="32.4" y2="81.39999999999999" stroke="#000000" stroke-width="2.0" />
    <line x1="32.4" y1="71.6" x2="32.4" y2="71.6" stroke="#000000" stroke-width="2.0" />
    <line x1="22.599999999999998" y1="71.6" x2="22.599999999999998" y2="71.6" stroke="#000000" stroke-width="2.0" />
    <line x1="22.599999999999998" y1="81.39999999999999" x2="32.4" y2="71.6" stroke="#000000" stroke-width="2.0" />
    <line x1="22.599999999999998" y1="81.39999999999999" x2="32.4" y2="81.39999999999999" stroke="#000000" stroke-width="2.0" />
    <line x1="22.599999999999998" y1="71.6" x2="32.4" y2="71.6" stroke="#000000" stroke-width="2.0" />
    <line x1="32.4" y1="71.6" x2="42.199999999999996" y2="81.39999999999999" stroke="#000000" stroke-width="2.0" />
    <line x1="42.199999999999996" y1="71.6" x2="42.199999999999996" y2="71.6" stroke="#000000" stroke-width="2.0" />
    <line x1="32.4" y1="71.6" x2="32.4" y2="71.6" stroke="#000000" stroke-width="2.0" />
    <line x1="32.4" y1="81.39999999999999" x2="42.199999999999996" y2="71.6" stroke="#000000" stroke-width="2.0" />
    <line x1="32.4" y1="81.39999999999999" x2="42.199999999999996" y2="81.39999999999999" stroke="#000000" stroke-width="2.0" />
    <line x1="32.4" y1="71.6" x2="42.199999999999996" y2="71.6" stroke="#000000" stroke-width="2.0" />
    <line x1="42.199999999999996" y1="71.6" x2="51.99999999999999" y2="81.39999999999999" stroke="#000000" stroke-width="2.0" />
    <line x1="51.99999999999999" y1="71.6" x2="51.99999999999999" y2="71.6" stroke="#000000" stroke-width="2.0" />
    <line x1="42.199999999999996" y1="71.6" x2="42.199999999999996" y2="71.6" stroke="#000000" stroke-width="2.0" />
    <line x1="42.199999999999996" y1="81.39999999999999" x2="51.99999999999999" y2="71.6" stroke="#000000" stroke-width="2.0" />
    <line x1="42.199999999999996" y1="81.39999999999999" x2="51.99999999999999" y2="81.39999999999999" stroke="#000000" stroke-width="2.0" />
    <line x1="42.199999999999996" y1="71.6" x2="51.99999999999999" y2="71.6" stroke="#000000" stroke-width="2.0" />
    <line x1="51.99999999999999" y1="71.6" x2="61.8" y2="81.39999999999999" stroke="#000000" stroke-width="2.0" />
    <line x1="61.8" y1="71.6" x2="61.8" y2="71.6" stroke="#000000" stroke-width="2.0" />
    <line x1="51.99999999999999" y1="71.6" x2="51.99999999999999" y2="71.6" stroke="#000000" stroke-width="2.0" />
    <line x1="51.99999999999999" y1="81.39999999999999" x2="61.8" y2="71.6" stroke="#000000" stroke-width="2.0" />
    <line x1="61.8" y1="71.6" x2="61.8" y2="81.39999999999999" stroke="#000000" stroke-width="2.0" />
    <line x1="51.99999999999999" y1="81.39999999999999" x2="61.8" y2="81.39999999999999" stroke="#000000" stroke-width="2.0" />
    <line x1="51.99999999999999" y1="71.6" x2="61.8" y2="71.6" stroke="#000000" stroke-width="2.0" />
</g>
<g>
    <line x1="83.03333333333332" y1="71.6" x2="83.03333333333332" y2="81.39999999999999" stroke="#000000" stroke-width="2.0" />
    <line x1="87.93333333333332" y1="71.6" x2="87.93333333333332" y2="81.39999999999999" stroke="#000000" stroke-width="2.0" />
    <line x1="81.39999999999999" y1="73.23333333333333" x2="91.19999999999999" y2="73.23333333333333" stroke="#000000" stroke-width="2.0" />
    <line x1="81.39999999999999" y1="78.13333333333333" x2="91.19999999999999" y2="78.13333333333333" stroke="#000000" stroke-width="2.0" />
    <line x1="81.39999999999999" y1="71.6" x2="81.39999999999999" y2="81.39999999999999" stroke="#000000" stroke-width="2.0" />
    <line x1="81.39999999999999" y1="81.39999999999999" x2="91.19999999999999" y2="81.39999999999999" stroke="#000000" stroke-width="2.0" />
    <line x1="81.39999999999999" y1="71.6" x2="91.19999999999999" y2="71.6" stroke="#000000" stroke-width="2.0" />
    <line x1="92.83333333333331" y1="71.6" x2="92.83333333333331" y2="81.39999999999999" stroke="#000000" stroke-width="2.0" />
    <line x1="97.73333333333332" y1="71.6" x2="97.73333333333332" y2="81.39999999999999" stroke="#000000" stroke-width="2.0" />
    <line x1="91.19999999999999" y1="73.23333333333333" x2="100.99999999999999" y2="73.23333333333333" stroke="#000000" stroke-width="2.0" />
    <line x1="91.19999999999999" y1="78.13333333333333" x2="100.99999999999999" y2="78.13333333333333" stroke="#000000" stroke-width="2.0" />
    <line x1="91.19999999999999" y1="81.39999999999999" x2="100.99999999999999" y2="81.39999999999999" stroke="#000000" stroke-width="2.0" />
    <line x1="91.19999999999999" y1="71.6" x2="100.99999999999999" y2="71.6" stroke="#000000" stroke-width="2.0" />
    <line x1="102.63333333333331" y1="71.6" x2="102.63333333333331" y2="81.39999999999999" stroke="#000000" stroke-width="2.0" />
    <line x1="107.53333333333332" y1="71.6" x2="107.53333333333332" y2="81.39999999999999" stroke="#000000" stroke-width="2.0" />
    <line x1="100.99999999999999" y1="73.23333333333333" x2="110.79999999999998" y2="73.23333333333333" stroke="#000000" stroke-width="2.0" />
    <line x1="100.99999999999999" y1="78.13333333333333" x2="110.79999999999998" y2="78.13333333333333" stroke="#000000" stroke-width="2.0" />
    <line x1="100.99999999999999" y1="81.39999999999999" x2="110.79999999999998" y2="81.39999999999999" stroke="#000000" stroke-width="2.0" />
    <line x1="100.99999999999999" y1="71.6" x2="110.79999999999998" y2="71.6" stroke="#000000" stroke-width="2.0" />
    <line x1="112.43333333333331" y1="71.6" x2="112.43333333333331" y2="81.39999999999999" stroke="#000000" stroke-width="2.0" />
    <line x1="117.33333333333331" y1="71.6" x2="117.33333333333331" y2="81.39999999999999" stroke="#000000" stroke-width="2.0" />
    <line x1="110.79999999999998" y1="73.23333333333333" x2="120.6" y2="73.23333333333333" stroke="#000000" stroke-width="2.0" />
    <line x1="110.79999999999998" y1="78.13333333333333" x2="120.6" y2="78.13333333333333" stroke="#000000" stroke-width="2.0" />
    <line x1="120.6" y1="71.6" x2="120.6" y2="81.39999999999999" stroke="#000000" stroke-width="2.0" />
    <line x1="110.79999999999998" y1="81.39999999999999" x2="120.6" y2="81.39999999999999" stroke="#000000" stroke-width="2.0" />
    <line x1="110.79999999999998" y1="71.6" x2="120.6" y2="71.6" stroke="#000000" stroke-width="2.0" />
</g>
<g>
    <line x1="140.2" y1="73.23333333333333" x2="149.99999999999997" y2="73.23333333333333" stroke="#000000" stroke-width="2.0" />
    <line x1="140.2" y1="78.13333333333333" x2="149.99999999999997" y2="78.13333333333333" stroke="#000000" stroke-width="2.0" />
    <line x1="149.99999999999997" y1="71.6" x2="149.99999999999997" y2="81.39999999999999" stroke="#000000" stroke-width="2.0" />
    <line x1="140.2" y1="71.6" x2="140.2" y2="81.39999999999999" stroke="#000000" stroke-width="2.0" />
    <line x1="140.2" y1="71.6" x2="149.99999999999997" y2="71.6" stroke="#000000" stroke-width="2.0" />
    <line x1="140.2" y1="83.03333333333332" x2="149.99999999999997" y2="83.03333333333332" stroke="#000000" stroke-width="2.0" />
    <line x1="140.2" y1="87.93333333333332" x2="149.99999999999997" y2="87.93333333333332" stroke="#000000" stroke-width="2.0" />
    <line x1="140.2" y1="81.39999999999999" x2="140.2" y2="91.19999999999999" stroke="#000000" stroke-width="2.0" />
    <line x1="140.2" y1="92.83333333333331" x2="149.99999999999997" y2="92.83333333333331" stroke="#000000" stroke-width="2.0" />
    <line x1="140.2" y1="97.73333333333332" x2="149.99999999999997" y2="97.73333333333332" stroke="#000000" stroke-width="2.0" />
    <line x1="140.2" y1="91.19999999999999" x2="140.2" y2="100.99999999999999" stroke="#000000" stroke-width="2.0" />
    <line x1="140.2" y1="102.63333333333331" x2="149.99999999999997" y2="102.63333333333331" stroke="#000000" stroke-width="2.0" />
    <line x1="140.2" y1="107.53333333333332" x2="149.99999999999997" y2="107.53333333333332" stroke="#000000" stroke-width="2.0" />
    <line x1="149.99999999999997" y1="100.99999999999999" x2="149.99999999999997" y2="110.79999999999998" stroke="#000000" stroke-width="2.0" />
    <line x1="140.2" y1="100.99999999999999" x2="140.2" y2="110.79999999999998" stroke="#000000" stroke-width="2.0" />
    <line x1="140.2" y1="112.43333333333331" x2="149.99999999999997" y2="112.43333333333331" stroke="#000000" stroke-width="2.0" />
    <line x1="140.2" y1="117.33333333333331" x2="149.99999999999997" y2="117.33333333333331" stroke="#000000" stroke-width="2.0" />
    <line x1="149.99999999999997" y1="110.79999999999998" x2="149.99999999999997" y2="120.6" stroke="#000000" stroke-width="2.0" />
    <line x1="140.2" y1="110.79999999999998" x2="140.2" y2="120.6" stroke="#000000" stroke-width="2.0" />
    <line x1="140.2" y1="122.23333333333332" x2="149.99999999999997" y2="122.23333333333332" stroke="#000000" stroke-width="2.0" />
    <line x1="140.2" y1="127.13333333333331" x2="149.99999999999997" y2="127.13333333333331" stroke="#000000" stroke-width="2.0" />
    <line x1="149.99999999999997" y1="120.6" x2="149.99999999999997" y2="130.39999999999998" stroke="#000000" stroke-width="2.0" />
    <line x1="140.2" y1="120.6" x2="140.2" y2="130.39999999999998" stroke="#000000" stroke-width="2.0" />
    <line x1="140.2" y1="130.39999999999998" x2="149.99999999999997" y2="130.39999999999998" stroke="#000000" stroke-width="2.0" />
    <line x1="149.99999999999997" y1="92.83333333333331" x2="159.79999999999998" y2="92.83333333333331" stroke="#000000" stroke-width="2.0" />
    <line x1="149.99999999999997" y1="97.73333333333332" x2="159.79999999999998" y2="97.73333333333332" stroke="#000000" stroke-width="2.0" />
    <line x1="149.99999999999997" y1="100.99999999999999" x2="159.79999999999998" y2="100.99999999999999" stroke="#000000" stroke-width="2.0" />
    <line x1="149.99999999999997" y1="83.03333333333332" x2="159.79999999999998" y2="83.03333333333332" stroke="#000000" stroke-width="2.0" />
    <line x1="149.99999999999997" y1="87.93333333333332" x2="159.79999999999998" y2="87.93333333333332" stroke="#000000" stroke-width="2.0" />
    <line x1="159.79999999999998" y1="81.39999999999999" x2="159.79999999999998" y2="91.19999999999999" stroke="#000000" stroke-width="2.0" />
    <line x1="149.99999999999997" y1="81.39999999999999" x2="159.79999999999998" y2="81.39999999999999" stroke="#000000" stroke-width="2.0" />
    <line x1="159.79999999999998" y1="92.83333333333331" x2="169.6" y2="92.83333333333331" stroke="#000000" stroke-width="2.0" />
    <line x1="159.79999999999998" y1="97.73333333333332" x2="169.6" y2="97.73333333333332" stroke="#000000" stroke-width="2.0" />
    <line x1="159.79999999999998" y1="91.19999999999999" x2="169.6" y2="91.19999999999999" stroke="#000000" stroke-width="2.0" />
    <line x1="159.79999999999998" y1="102.63333333333331" x2="169.6" y2="102.63333333333331" stroke="#000000" stroke-width="2.0" />
    <line x1="159.79999999999998" y1="107.53333333333332" x2="169.6" y2="107.53333333333332" stroke="#000000" stroke-width="2.0" />
    <line x1="159.79999999999998" y1="100.99999999999999" x2="159.79999999999998" y2="110.79999999999998" stroke="#000000" stroke-width="2.0" />
    <line x1="159.79999999999998" y1="110.79999999999998" x2="169.6" y2="110.79999999999998" stroke="#000000" stroke-width="2.0" />
    <line x1="169.6" y1="102.63333333333331" x2="179.39999999999998" y2="102.63333333333331" stroke="#000000" stroke-width="2.0" />
    <line x1="169.6" y1="107.53333333333332" x2="179.39999999999998" y2="107.53333333333332" stroke="#000000" stroke-width="2.0" />
    <line x1="169.6" y1="110.79999999999998" x2="179.39999999999998" y2="110.79999999999998" stroke="#000000" stroke-width="2.0" />
    <line x1="169.6" y1="92.83333333333331" x2="179.39999999999998" y2="92.83333333333331" stroke="#000000" stroke-width="2.0" />
    <line x1="169.6" y1="97.73333333333332" x2="179.39999999999998" y2="97.73333333333332" stroke="#000000" stroke-width="2.0" />
    <line x1="179.39999999999998" y1="91.19999999999999" x2="179.39999999999998" y2="100.99999999999999" stroke="#000000" stroke-width="2.0" />
    <line x1="169.6" y1="91.19999999999999" x2="179.39999999999998" y2="91.19999999999999" stroke="#000000" stroke-width="2.0" />
    <line x1="179.39999999999998" y1="102.63333333333331" x2="189.2" y2="102.63333333333331" stroke="#000000" stroke-width="2.0" />
    <line x1="179.39999999999998" y1="107.53333333333332" x2="189.2" y2="107.53333333333332" stroke="#000000" stroke-width="2.0" />
    <line x1="179.39999999999998" y1="100.99999999999999" x2="189.2" y2="100.99999999999999" stroke="#000000" stroke-width="2.0" />
    <line x1="179.39999999999998" y1="112.43333333333331" x2="189.2" y2="112.43333333333331" stroke="#000000" stroke-width="2.0" />
    <line x1="179.39999999999998" y1="117.33333333333331" x2="189.2" y2="117.33333333333331" stroke="#000000" stroke-width="2.0" />
    <line x1="179.39999999999998" y1="110.79999999999998" x2="179.39999999999998" y2="120.6" stroke="#000000" stroke-width="2.0" />
    <line x1="179.39999999999998" y1="120.6" x2="189.2" y2="120.6" stroke="#000000" stroke-width="2.0" />
    <line x1="189.2" y1="112.43333333333331" x2="198.99999999999997" y2="112.43333333333331" stroke="#000000" stroke-width="2.0" />
    <line x1="189.2" y1="117.33333333333331" x2="198.99999999999997" y2="117.33333333333331" stroke="#000000" stroke-width="2.0" />
    <line x1="198.99999999999997" y1="110.79999999999998" x2="198.99999999999997" y2="120.6" stroke="#000000" stroke-width="2.0" />
    <line x1="189.2" y1="102.63333333333331" x2="198.99999999999997" y2="102.63333333333331" stroke="#000000" stroke-width="2.0" />
    <line x1="189.2" y1="107.53333333333332" x2="198.99999999999997" y2="107.53333333333332" stroke="#000000" stroke-width="2.0" />
    <line x1="198.99999999999997" y1="100.99999999999999" x2="198.99999999999997" y2="110.79999999999998" stroke="#000000" stroke-width="2.0" />
    <line x1="189.2" y1="92.83333333333331" x2="198.99999999999997" y2="92.83333333333331" stroke="#000000" stroke-width="2.0" />
    <line x1="189.2" y1="97.73333333333332" x2="198.99999999999997" y2="97.73333333333332" stroke="#000000" stroke-width="2.0" />
    <line x1="198.99999999999997" y1="91.19999999999999" x2="198.99999999999997" y2="100.99999999999999" stroke="#000000" stroke-width="2.0" />
    <line x1="189.2" y1="91.19999999999999" x2="189.2" y2="100.99999999999999" stroke="#000000" stroke-width="2.0" />
    <line x1="189.2" y1="83.03333333333332" x2="198.99999999999997" y2="83.03333333333332" stroke="#000000" stroke-width="2.0" />
    <line x1="189.2" y1="87.93333333333332" x2="198.99999999999997" y2="87.93333333333332" stroke="#000000" stroke-width="2.0" />
    <line x1="198.99999999999997" y1="81.39999999999999" x2="198.99999999999997" y2="91.19999999999999" stroke="#000000" stroke-width="2.0" />
    <line x1="189.2" y1="81.39999999999999" x2="189.2" y2="91.19999999999999" stroke="#000000" stroke-width="2.0" />
    <line x1="189.2" y1="73.23333333333333" x2="198.99999999999997" y2="73.23333333333333" stroke="#000000" stroke-width="2.0" />
    <line x1="189.2" y1="78.13333333333333" x2="198.99999999999997" y2="78.13333333333333" stroke="#000000" stroke-width="2.0" />
    <line x1="198.99999999999997" y1="71.6" x2="198.99999999999997" y2="81.39999999999999" stroke="#000000" stroke-width="2.0" />
    <line x1="189.2" y1="71.6" x2="189.2" y2="81.39999999999999" stroke="#000000" stroke-width="2.0" />
    <line x1="189.2" y1="71.6" x2="198.99999999999997" y2="71.6" stroke="#000000" stroke-width="2.0" />
    <line x1="189.2" y1="122.23333333333332" x2="198.99999999999997" y2="122.23333333333332" stroke="#000000" stroke-width="2.0" />
    <line x1="189.2" y1="127.13333333333331" x2="198.99999999999997" y2="127.13333333333331" stroke="#000000" stroke-width="2.0" />
    <line x1="198.99999999999997" y1="120.6" x2="198.99999999999997" y2="130.39999999999998" stroke="#000000" stroke-width="2.0" />
    <line x1="189.2" y1="120.6" x2="189.2" y2="130.39999999999998" stroke="#000000" stroke-width="2.0" />
    <line x1="189.2" y1="130.39999999999998" x2="198.99999999999997" y2="130.39999999999998" stroke="#000000" stroke-width="2.0" />
</g>
<g>
    <line x1="208.79999999999998" y1="71.6" x2="218.59999999999997" y2="81.39999999999999" stroke="#000000" stroke-width="2.0" />
    <line x1="218.59999999999997" y1="71.6" x2="218.59999999999997" y2="71.6" stroke="#000000" stroke-width="2.0" />
    <line x1="208.79999999999998" y1="76.49999999999999" x2="213.7" y2="81.39999999999999" stroke="#000000" stroke-width="2.0" />
    <line x1="213.7" y1="71.6" x2="218.59999999999997" y2="76.49999999999999" stroke="#000000" stroke-width="2.0" />
    <line x1="208.79999999999998" y1="71.6" x2="208.79999999999998" y2="71.6" stroke="#000000" stroke-width="2.0" />
    <line x1="208.79999999999998" y1="81.39999999999999" x2="218.59999999999997" y2="71.6" stroke="#000000" stroke-width="2.0" />
    <line x1="208.79999999999998" y1="76.49999999999999" x2="213.7" y2="71.6" stroke="#000000" stroke-width="2.0" />
    <line x1="213.7" y1="81.39999999999999" x2="218.59999999999997" y2="76.49999999999999" stroke="#000000" stroke-width="2.0" />
    <line x1="208.79999999999998" y1="71.6" x2="208.79999999999998" y2="81.39999999999999" stroke="#000000" stroke-width="2.0" />
    <line x1="208.79999999999998" y1="71.6" x2="218.59999999999997" y2="71.6" stroke="#000000" stroke-width="2.0" />
    <line x1="208.79999999999998" y1="81.39999999999999" x2="218.59999999999997" y2="91.19999999999999" stroke="#000000" stroke-width="2.0" />
    <line x1="218.59999999999997" y1="81.39999999999999" x2="218.59999999999997" y2="81.39999999999999" stroke="#000000" stroke-width="2.0" />
    <line x1="208.79999999999998" y1="86.3" x2="213.7" y2="91.19999999999999" stroke="#000000" stroke-width="2.0" />
    <line x1="213.7" y1="81.39999999999999" x2="218.59999999999997" y2="86.3" stroke="#000000" stroke-width="2.0" />
    <line x1="208.79999999999998" y1="81.39999999999999" x2="208.79999999999998" y2="81.39999999999999" stroke="#000000" stroke-width="2.0" />
    <line x1="208.79999999999998" y1="91.19999999999999" x2="218.59999999999997" y2="81.39999999999999" stroke="#000000" stroke-width="2.0" />
    <line x1="208.79999999999998" y1="86.3" x2="213.7" y2="81.39999999999999" stroke="#000000" stroke-width="2.0" />
    <line x1="213.7" y1="91.19999999999999" x2="218.59999999999997" y2="86.3" stroke="#000000" stroke-width="2.0" />
    <line x1="218.59999999999997" y1="81.39999999999999" x2="218.59999999999997" y2="91.19999999999999" stroke="#000000" stroke-width="2.0" />
    <line x1="208.79999999999998" y1="81.39999999999999" x2="208.79999999999998" y2="91.19999999999999" stroke="#000000" stroke-width="2.0" />
    <line x1="208.79999999999998" y1="91.19999999999999" x2="218.59999999999997" y2="100.99999999999999" stroke="#000000" stroke-width="2.0" />
    <line x1="218.59999999999997" y1="91.19999999999999" x2="218.59999999999997" y2="91.19999999999999" stroke="#000000" stroke-width="2.0" />
    <line x1="208.79999999999998" y1="96.1" x2="213.7" y2="100.99999999999999" stroke="#000000" stroke-width="2.0" />
    <line x1="213.7" y1="91.19999999999999" x2="218.59999999999997" y2="96.1" stroke="#000000" stroke-width="2.0" />
    <line x1="208.79999999999998" y1="91.19999999999999" x2="208.79999999999998" y2="91.19999999999999" stroke="#000000" stroke-width="2.0" />
    <line x1="208.79999999999998" y1="100.99999999999999" x2="218.59999999999997" y2="91.19999999999999" stroke="#000000" stroke-width="2.0" />
    <line x1="208.79999999999998" y1="96.1" x2="213.7" y2="91.19999999999999" stroke="#000000" stroke-width="2.0" />
    <line x1="213.7" y1="100.99999999999999" x2="218.59999999999997" y2="96.1" stroke="#000000" stroke-width="2.0" />
    <line x1="208.79999999999998" y1="91.19999999999999" x2="208.79999999999998" y2="100.99999999999999" stroke="#000000" stroke-width="2.0" />
    <line x1="208.79999999999998" y1="100.99999999999999" x2="218.59999999999997" y2="110.79999999999998" stroke="#000000" stroke-width="2.0" />
    <line x1="218.59999999999997" y1="100.99999999999999" x2="218.59999999999997" y2="100.99999999999999" stroke="#000000" stroke-width="2.0" />
    <line x1="208.79999999999998" y1="105.89999999999999" x2="213.7" y2="110.79999999999998" stroke="#000000" stroke-width="2.0" />
    <line x1="213.7" y1="100.99999999999999" x2="218.59999999999997" y2="105.89999999999999" stroke="#000000" stroke-width="2.0" />
    <line x1="208.79999999999998" y1="100.99999999999999" x2="208.79999999999998" y2="100.99999999999999" stroke="#000000" stroke-width="2.0" />
    <line x1="208.79999999999998" y1="110.79999999999998" x2="218.59999999999997" y2="100.99999999999999" stroke="#000000" stroke-width="2.0" />
    <line x1="208.79999999999998" y1="105.89999999999999" x2="213.7" y2="100.99999999999999" stroke="#000000" stroke-width="2.0" />
    <line x1="213.7" y1="110.79999999999998" x2="218.59999999999997" y2="105.89999999999999" stroke="#000000" stroke-width="2.0" />
    <line x1="218.59999999999997" y1="100.99999999999999" x2="218.59999999999997" y2="110.79999999999998" stroke="#000000" stroke-width="2.0" />
    <line x1="208.79999999999998" y1="100.99999999999999" x2="208.79999999999998" y2="110.79999999999998" stroke="#000000" stroke-width="2.0" />
    <line x1="208.79999999999998" y1="110.79999999999998" x2="218.59999999999997" y2="120.6" stroke="#000000" stroke-width="2.0" />
    <line x1="218.59999999999997" y1="110.79999999999998" x2="218.59999999999997" y2="110.79999999999998" stroke="#000000" stroke-width="2.0" />
    <line x1="208.79999999999998" y1="115.69999999999999" x2="213.7" y2="120.6" stroke="#000000" stroke-width="2.0" />
    <line x1="213.7" y1="110.79999999999998" x2="218.59999999999997" y2="115.69999999999999" stroke="#000000" stroke-width="2.0" />
    <line x1="208.79999999999998" y1="110.79999999999998" x2="208.79999999999998" y2="110.79999999999998" stroke="#000000" stroke-width="2.0" />
    <line x1="208.79999999999998" y1="120.6" x2="218.59999999999997" y2="110.79999999999998" stroke="#000000" stroke-width="2.0" />
    <line x1="208.79999999999998" y1="115.69999999999999" x2="213.7" y2="110.79999999999998" stroke="#000000" stroke-width="2.0" />
    <line x1="213.7" y1="120.6" x2="218.59999999999997" y2="115.69999999999999" stroke="#000000" stroke-width="2.0" />
    <line x1="218.59999999999997" y1="110.79999999999998" x2="218.59999999999997" y2="120.6" stroke="#000000" stroke-width="2.0" />
    <line x1="208.79999999999998" y1="110.79999999999998" x2="208.79999999999998" y2="120.6" stroke="#000000" stroke-width="2.0" />
    <line x1="208.79999999999998" y1="120.6" x2="218.59999999999997" y2="130.39999999999998" stroke="#000000" stroke-width="2.0" />
    <line x1="218.59999999999997" y1="120.6" x2="218.59999999999997" y2="120.6" stroke="#000000" stroke-width="2.0" />
    <line x1="208.79999999999998" y1="125.49999999999999" x2="213.7" y2="130.39999999999998" stroke="#000000" stroke-width="2.0" />
    <line x1="213.7" y1="120.6" x2="218.59999999999997" y2="125.49999999999999" stroke="#000000" stroke-width="2.0" />
    <line x1="208.79999999999998" y1="120.6" x2="208.79999999999998" y2="120.6" stroke="#000000" stroke-width="2.0" />
    <line x1="208.79999999999998" y1="130.39999999999998" x2="218.59999999999997" y2="120.6" stroke="#000000" stroke-width="2.0" />
    <line x1="208.79999999999998" y1="125.49999999999999" x2="213.7" y2="120.6" stroke="#000000" stroke-width="2.0" />
    <line x1="213.7" y1="130.39999999999998" x2="218.59999999999997" y2="125.49999999999999" stroke="#000000" stroke-width="2.0" />
    <line x1="218.59999999999997" y1="120.6" x2="218.59999999999997" y2="130.39999999999998" stroke="#000000" stroke-width="2.0" />
    <line x1="208.79999999999998" y1="120.6" x2="208.79999999999998" y2="130.39999999999998" stroke="#000000" stroke-width="2.0" />
    <line x1="208.79999999999998" y1="130.39999999999998" x2="218.59999999999997" y2="130.39999999999998" stroke="#000000" stroke-width="2.0" />
    <line x1="218.59999999999997" y1="91.19999999999999" x2="228.39999999999998" y2="100.99999999999999" stroke="#000000" stroke-width="2.0" />
    <line x1="228.39999999999998" y1="91.19999999999999" x2="228.39999999999998" y2="91.19999999999999" stroke="#000000" stroke-width="2.0" />
    <line x1="218.59999999999997" y1="96.1" x2="223.49999999999997" y2="100.99999999999999" stroke="#000000" stroke-width="2.0" />
    <line x1="223.49999999999997" y1="91.19999999999999" x2="228.39999999999998" y2="96.1" stroke="#000000" stroke-width="2.0" />
    <line x1="218.59999999999997" y1="91.19999999999999" x2="218.59999999999997" y2="91.19999999999999" stroke="#000000" stroke-width="2.0" />
    <line x1="218.59999999999997" y1="100.99999999999999" x2="228.39999999999998" y2="91.19999999999999" stroke="#000000" stroke-width="2.0" />
    <line x1="218.59999999999997" y1="96.1" x2="223.49999999999997" y2="91.19999999999999" stroke="#000000" stroke-width="2.0" />
    <line x1="223.49999999999997" y1="100.99999999999999" x2="228.39999999999998" y2="96.1" stroke="#000000" stroke-width="2.0" />
    <line x1="218.59999999999997" y1="100.99999999999999" x2="228.39999999999998" y2="100.99999999999999" stroke="#000000" stroke-width="2.0" />
    <line x1="218.59999999999997" y1="91.19999999999999" x2="228.39999999999998" y2="91.19999999999999" stroke="#000000" stroke-width="2.0" />
    <line x1="228.39999999999998" y1="91.19999999999999" x2="238.2" y2="100.99999999999999" stroke="#000000" stroke-width="2.0" />
    <line x1="238.2" y1="91.19999999999999" x2="238.2" y2="91.19999999999999" stroke="#000000" stroke-width="2.0" />
    <line x1="228.39999999999998" y1="96.1" x2="233.29999999999998" y2="100.99999999999999" stroke="#000000" stroke-width="2.0" />
    <line x1="233.29999999999998" y1="91.19999999999999" x2="238.2" y2="96.1" stroke="#000000" stroke-width="2.0" />
    <line x1="228.39999999999998" y1="91.19999999999999" x2="228.39999999999998" y2="91.19999999999999" stroke="#000000" stroke-width="2.0" />
    <line x1="228.39999999999998" y1="100.99999999999999" x2="238.2" y2="91.19999999999999" stroke="#000000" stroke-width="2.0" />
    <line x1="228.39999999999998" y1="96.1" x2="233.29999999999998" y2="91.19999999999999" stroke="#000000" stroke-width="2.0" />
    <line x1="233.29999999999998" y1="100.99999999999999" x2="238.2" y2="96.1" stroke="#000000" stroke-width="2.0" />
    <line x1="228.39999999999998" y1="100.99999999999999" x2="238.2" y2="100.99999999999999" stroke="#000000" stroke-width="2.0" />
    <line x1="228.39999999999998" y1="91.19999999999999" x2="238.2" y2="91.19999999999999" stroke="#000000" stroke-width="2.0" />
    <line x1="238.2" y1="91.19999999999999" x2="247.99999999999997" y2="100.99999999999999" stroke="#000000" stroke-width="2.0" />
    <line x1="247.99999999999997" y1="91.19999999999999" x2="247.99999999999997" y2="91.19999999999999" stroke="#000000" stroke-width="2.0" />
    <line x1="238.2" y1="96.1" x2="243.09999999999997" y2="100.99999999999999" stroke="#000000" stroke-width="2.0" />
    <line x1="243.09999999999997" y1="91.19999999999999" x2="247.99999999999997" y2="96.1" stroke="#000000" stroke-width="2.0" />
    <line x1="238.2" y1="91.19999999999999" x2="238.2" y2="91.19999999999999" stroke="#000000" stroke-width="2.0" />
    <line x1="238.2" y1="100.99999999999999" x2="247.99999999999997" y2="91.19999999999999" stroke="#000000" stroke-width="2.0" />
    <line x1="238.2" y1="96.1" x2="243.09999999999997" y2="91.19999999999999" stroke="#000000" stroke-width="2.0" />
    <line x1="243.09999999999997" y1="100.99999999999999" x2="247.99999999999997" y2="96.1" stroke="#000000" stroke-width="2.0" />
    <line x1="247.99999999999997" y1="91.19999999999999" x2="247.99999999999997" y2="100.99999999999999" stroke="#000000" stroke-width="2.0" />
    <line x1="238.2" y1="100.99999999999999" x2="247.99999999999997" y2="100.99999999999999" stroke="#000000" stroke-width="2.0" />
    <line x1="238.2" y1="91.19999999999999" x2="247.99999999999997" y2="91.19999999999999" stroke="#000000" stroke-width="2.0" />
    <line x1="218.59999999999997" y1="71.6" x2="228.39999999999998" y2="81.39999999999999" stroke="#000000" stroke-width="2.0" />
    <line x1="228.39999999999998" y1="71.6" x2="228.39999999999998" y2="71.6" stroke="#000000" stroke-width="2.0" />
    <line x1="218.59999999999997" y1="76.49999999999999" x2="223.49999999999997" y2="81.39999999999999" stroke="#000000" stroke-width="2.0" />
    <line x1="223.49999999999997" y1="71.6" x2="228.39999999999998" y2="76.49999999999999" stroke="#000000" stroke-width="2.0" />
    <line x1="218.59999999999997" y1="71.6" x2="218.59999999999997" y2="71.6" stroke="#000000" stroke-width="2.0" />
    <line x1="218.59999999999997" y1="81.39999999999999" x2="228.39999999999998" y2="71.6" stroke="#000000" stroke-width="2.0" />
    <line x1="218.59999999999997" y1="76.49999999999999" x2="223.49999999999997" y2="71.6" stroke="#000000" stroke-width="2.0" />
    <line x1="223.49999999999997" y1="81.39999999999999" x2="228.39999999999998" y2="76.49999999999999" stroke="#000000" stroke-width="2.0" />
    <line x1="218.59999999999997" y1="81.39999999999999" x2="228.39999999999998" y2="81.39999999999999" stroke="#000000" stroke-width="2.0" />
    <line x1="218.59999999999997" y1="71.6" x2="228.39999999999998" y2="71.6" stroke="#000000" stroke-width="2.0" />
    <line x1="228.39999999999998" y1="71.6" x2="238.2" y2="81.39999999999999" stroke="#000000" stroke-width="2.0" />
    <line x1="238.2" y1="71.6" x2="238.2" y2="71.6" stroke="#000000" stroke-width="2.0" />
    <line x1="228.39999999999998" y1="76.49999999999999" x2="233.29999999999998" y2="81.39999999999999" stroke="#000000" stroke-width="2.0" />
    <line x1="233.29999999999998" y1="71.6" x2="238.2" y2="76.49999999999999" stroke="#000000" stroke-width="2.0" />
    <line x1="228.39999999999998" y1="71.6" x2="228.39999999999998" y2="71.6" stroke="#000000" stroke-width="2.0" />
    <line x1="228.39999999999998" y1="81.39999999999999" x2="238.2" y2="71.6" stroke="#000000" stroke-width="2.0" />
    <line x1="228.39999999999998" y1="76.49999999999999" x2="233.29999999999998" y2="71.6" stroke="#000000" stroke-width="2.0" />
    <line x1="233.29999999999998" y1="81.39999999999999" x2="238.2" y2="76.49999999999999" stroke="#000000" stroke-width="2.0" />
    <line x1="228.39999999999998" y1="81.39999999999999" x2="238.2" y2="81.39999999999999" stroke="#000000" stroke-width="2.0" />
    <line x1="228.39999999999998" y1="71.6" x2="238.2" y2="71.6" stroke="#000000" stroke-width="2.0" />
    <line x1="238.2" y1="71.6" x2="247.99999999999997" y2="81.39999999999999" stroke="#000000" stroke-width="2.0" />
    <line x1="247.99999999999997" y1="71.6" x2="247.99999999999997" y2="71.6" stroke="#000000" stroke-width="2.0" />
    <line x1="238.2" y1="76.49999999999999" x2="243.09999999999997" y2="81.39999999999999" stroke="#000000" stroke-width="2.0" />
    <line x1="243.09999999999997" y1="71.6" x2="247.99999999999997" y2="76.49999999999999" stroke="#000000" stroke-width="2.0" />
    <line x1="238.2" y1="71.6" x2="238.2" y2="71.6" stroke="#000000" stroke-width="2.0" />
    <line x1="238.2" y1="81.39999999999999" x2="247.99999999999997" y2="71.6" stroke="#000000" stroke-width="2.0" />
    <line x1="238.2" y1="76.49999999999999" x2="243.09999999999997" y2="71.6" stroke="#000000" stroke-width="2.0" />
    <line x1="243.09999999999997" y1="81.39999999999999" x2="247.99999999999997" y2="76.49999999999999" stroke="#000000" stroke-width="2.0" />
    <line x1="238.2" y1="81.39999999999999" x2="247.99999999999997" y2="81.39999999999999" stroke="#000000" stroke-width="2.0" />
    <line x1="238.2" y1="71.6" x2="247.99999999999997" y2="71.6" stroke="#000000" stroke-width="2.0" />
    <line x1="247.99999999999997" y1="71.6" x2="257.79999999999995" y2="81.39999999999999" stroke="#000000" stroke-width="2.0" />
    <line x1="257.79999999999995" y1="71.6" x2="257.79999999999995" y2="71.6" stroke="#000000" stroke-width="2.0" />
    <line x1="247.99999999999997" y1="76.49999999999999" x2="252.89999999999998" y2="81.39999999999999" stroke="#000000" stroke-width="2.0" />
    <line x1="252.89999999999998" y1="71.6" x2="257.79999999999995" y2="76.49999999999999" stroke="#000000" stroke-width="2.0" />
    <line x1="247.99999999999997" y1="71.6" x2="247.99999999999997" y2="71.6" stroke="#000000" stroke-width="2.0" />
    <line x1="247.99999999999997" y1="81.39999999999999" x2="257.79999999999995" y2="71.6" stroke="#000000" stroke-width="2.0" />
    <line x1="247.99999999999997" y1="76.49999999999999" x2="252.89999999999998" y2="71.6" stroke="#000000" stroke-width="2.0" />
    <line x1="252.89999999999998" y1="81.39999999999999" x2="257.79999999999995" y2="76.49999999999999" stroke="#000000" stroke-width="2.0" />
    <line x1="247.99999999999997" y1="81.39999999999999" x2="257.79999999999995" y2="81.39999999999999" stroke="#000000" stroke-width="2.0" />
    <line x1="247.99999999999997" y1="71.6" x2="257.79999999999995" y2="71.6" stroke="#000000" stroke-width="2.0" />
    <line x1="257.79999999999995" y1="71.6" x2="267.59999999999997" y2="81.39999999999999" stroke="#000000" stroke-width="2.0" />
    <line x1="267.59999999999997" y1="71.6" x2="267.59999999999997" y2="71.6" stroke="#000000" stroke-width="2.0" />
    <line x1="257.79999999999995" y1="76.49999999999999" x2="262.7" y2="81.39999999999999" stroke="#000000" stroke-width="2.0" />
    <line x1="262.7" y1="71.6" x2="267.59999999999997" y2="76.49999999999999" stroke="#000000" stroke-width="2.0" />
    <line x1="257.79999999999995" y1="71.6" x2="257.79999999999995" y2="71.6" stroke="#000000" stroke-width="2.0" />
    <line x1="257.79999999999995" y1="81.39999999999999" x2="267.59999999999997" y2="71.6" stroke="#000000" stroke-width="2.0" />
    <line x1="257.79999999999995" y1="76.49999999999999" x2="262.7" y2="71.6" stroke="#000000" stroke-width="2.0" />
    <line x1="262.7" y1="81.39999999999999" x2="267.59999999999997" y2="76.49999999999999" stroke="#000000" stroke-width="2.0" />
    <line x1="267.59999999999997" y1="71.6" x2="267.59999999999997" y2="81.39999999999999" stroke="#000000" stroke-width="2.0" />
    <line x1="257.79999999999995" y1="81.39999999999999" x2="267.59999999999997" y2="81.39999999999999" stroke="#000000" stroke-width="2.0" />
    <line x1="257.79999999999995" y1="71.6" x2="267.59999999999997" y2="71.6" stroke="#000000" stroke-width="2.0" />
</g>
<g>
    <line x1="3.0" y1="81.39999999999999" x2="12.799999999999999" y2="91.19999999999999" stroke="#000000" stroke-width="2.0" />
    <line x1="12.799999999999999" y1="81.39999999999999" x2="12.799999999999999" y2="81.39999999999999" stroke="#000000" stroke-width="2.0" />
    <line x1="3.0" y1="81.39999999999999" x2="3.0" y2="81.39999999999999" stroke="#000000" stroke-width="2.0" />
    <line x1="3.0" y1="91.19999999999999" x2="12.799999999999999" y2="81.39999999999999" stroke="#000000" stroke-width="2.0" />
    <line x1="12.799999999999999" y1="81.39999999999999" x2="12.799999999999999" y2="91.19999999999999" stroke="#000000" stroke-width="2.0" />
    <line x1="3.0" y1="81.39999999999999" x2="3.0" y2="91.19999999999999" stroke="#000000" stroke-width="2.0" />
    <line x1="3.0" y1="81.39999999999999" x2="12.799999999999999" y2="81.39999999999999" stroke="#000000" stroke-width="2.0" />
    <line x1="3.0" y1="91.19999999999999" x2="12.799999999999999" y2="100.99999999999999" stroke="#000000" stroke-width="2.0" />
    <line x1="12.799999999999999" y1="91.19999999999999" x2="12.799999999999999" y2="91.19999999999999" stroke="#000000" stroke-width="2.0" />
    <line x1="3.0" y1="91.19999999999999" x2="3.0" y2="91.19999999999999" stroke="#000000" stroke-width="2.0" />
    <line x1="3.0" y1="100.99999999999999" x2="12.799999999999999" y2="91.19999999999999" stroke="#000000" stroke-width="2.0" />
    <line x1="12.799999999999999" y1="91.19999999999999" x2="12.799999999999999" y2="100.99999999999999" stroke="#000000" stroke-width="2.0" />
    <line x1="3.0" y1="91.19999999999999" x2="3.0" y2="100.99999999999999" stroke="#000000" stroke-width="2.0" />
    <line x1="3.0" y1="100.99999999999999" x2="12.799999999999999" y2="110.79999999999998" stroke="#000000" stroke-width="2.0" />
    <line x1="12.799999999999999" y1="100.99999999999999" x2="12.799999999999999" y2="100.99999999999999" stroke="#000000" stroke-width="2.0" />
    <line x1="3.0" y1="100.99999999999999" x2="3.0" y2="100.99999999999999" stroke="#000000" stroke-width="2.0" />
    <line x1="3.0" y1="110.79999999999998" x2="12.799999999999999" y2="100.99999999999999" stroke="#000000" stroke-width="2.0" />
    <line x1="12.799999999999999" y1="100.99999999999999" x2="12.799999999999999" y2="110.79999999999998" stroke="#000000" stroke-width="2.0" />
    <line x1="3.0" y1="100.99999999999999" x2="3.0" y2="110.79999999999998" stroke="#000000" stroke-width="2.0" />
    <line x1="3.0" y1="110.79999999999998" x2="12.799999999999999" y2="120.6" stroke="#000000" stroke-width="2.0" />
    <line x1="12.799999999999999" y1="110.79999999999998" x2="12.799999999999999" y2="110.79999999999998" stroke="#000000" stroke-width="2.0" />
    <line x1="3.0" y1="110.79999999999998" x2="3.0" y2="110.79999999999998" stroke="#000000" stroke-width="2.0" />
    <line x1="3.0" y1="120.6" x2="12.799999999999999" y2="110.79999999999998" stroke="#000000" stroke-width="2.0" />
    <line x1="12.799999999999999" y1="110.79999999999998" x2="12.799999999999999" y2="120.6" stroke="#000000" stroke-width="2.0" />
    <line x1="3.0" y1="110.79999999999998" x2="3.0" y2="120.6" stroke="#000000" stroke-width="2.0" />
    <line x1="3.0" y1="120.6" x2="12.799999999999999" y2="120.6" stroke="#000000" stroke-width="2.0" />
</g>
<g>
    <line x1="73.23333333333333" y1="81.39999999999999" x2="73.23333333333333" y2="91.19999999999999" stroke="#000000" stroke-width="2.0" />
    <line x1="78.13333333333333" y1="81.39999999999999" x2="78.13333333333333" y2="91.19999999999999" stroke="#000000" stroke-width="2.0" />
    <line x1="71.6" y1="83.03333333333332" x2="81.39999999999999" y2="83.03333333333332" stroke="#000000" stroke-width="2.0" />
    <line x1="71.6" y1="87.93333333333332" x2="81.39999999999999" y2="87.93333333333332" stroke="#000000" stroke-width="2.0" />
    <line x1="81.39999999999999" y1="81.39999999999999" x2="81.39999999999999" y2="91.19999999999999" stroke="#000000" stroke-width="2.0" />
    <line x1="71.6" y1="81.39999999999999" x2="71.6" y2="91.19999999999999" stroke="#000000" stroke-width="2.0" />
    <line x1="71.6" y1="81.39999999999999" x2="81.39999999999999" y2="81.39999999999999" stroke="#000000" stroke-width="2.0" />
    <line x1="73.23333333333333" y1="91.19999999999999" x2="73.23333333333333" y2="100.99999999999999" stroke="#000000" stroke-width="2.0" />
    <line x1="78.13333333333333" y1="91.19999999999999" x2="78.13333333333333" y2="100.99999999999999" stroke="#000000" stroke-width="2.0" />
    <line x1="71.6" y1="92.83333333333331" x2="81.39999999999999" y2="92.83333333333331" stroke="#000000" stroke-width="2.0" />
    <line x1="71.6" y1="97.73333333333332" x2="81.39999999999999" y2="97.73333333333332" stroke="#000000" stroke-width="2.0" />
    <line x1="81.39999999999999" y1="91.19999999999999" x2="81.39999999999999" y2="100.99999999999999" stroke="#000000" stroke-width="2.0" />
    <line x1="71.6" y1="91.19999999999999" x2="71.6" y2="100.99999999999999" stroke="#000000" stroke-width="2.0" />
    <line x1="73.23333333333333" y1="100.99999999999999" x2="73.23333333333333" y2="110.79999999999998" stroke="#000000" stroke-width="2.0" />
    <line x1="78.13333333333333" y1="100.99999999999999" x2="78.13333333333333" y2="110.79999999999998" stroke="#000000" stroke-width="2.0" />
    <line x1="71.6" y1="102.63333333333331" x2="81.39999999999999" y2="102.63333333333331" stroke="#000000" stroke-width="2.0" />
    <line x1="71.6" y1="107.53333333333332" x2="81.39999999999999" y2="107.53333333333332" stroke="#000000" stroke-width="2.0" />
    <line x1="81.39999999999999" y1="100.99999999999999" x2="81.39999999999999" y2="110.79999999999998" stroke="#000000" stroke-width="2.0" />
    <line x1="71.6" y1="100.99999999999999" x2="71.6" y2="110.79999999999998" stroke="#000000" stroke-width="2.0" />
    <line x1="73.23333333333333" y1="110.79999999999998" x2="73.23333333333333" y2="120.6" stroke="#000000" stroke-width="2.0" />
    <line x1="78.13333333333333" y1="110.79999999999998" x2="78.13333333333333" y2="120.6" stroke="#000000" stroke-width="2.0" />
    <line x1="71.6" y1="112.43333333333331" x2="81.39999999999999" y2="112.43333333333331" stroke="#000000" stroke-width="2.0" />
    <line x1="71.6" y1="117.33333333333331" x2="81.39999999999999" y2="117.33333333333331" stroke="#000000" stroke-width="2.0" />
    <line x1="81.39999999999999" y1="110.79999999999998" x2="81.39999999999999" y2="120.6" stroke="#000000" stroke-width="2.0" />
    <line x1="71.6" y1="110.79999999999998" x2="71.6" y2="120.6" stroke="#000000" stroke-width="2.0" />
    <line x1="71.6" y1="120.6" x2="81.39999999999999" y2="120.6" stroke="#000000" stroke-width="2.0" />
</g>
<g>
    <line x1="122.23333333333332" y1="81.39999999999999" x2="122.23333333333332" y2="91.19999999999999" stroke="#000000" stroke-width="2.0" />
    <line x1="127.13333333333331" y1="81.39999999999999" x2="127.13333333333331" y2="91.19999999999999" stroke="#000000" stroke-width="2.0" />
    <line x1="120.6" y1="83.03333333333332" x2="130.39999999999998" y2="83.03333333333332" stroke="#000000" stroke-width="2.0" />
    <line x1="120.6" y1="87.93333333333332" x2="130.39999999999998" y2="87.93333333333332" stroke="#000000" stroke-width="2.0" />
    <line x1="130.39999999999998" y1="81.39999999999999" x2="130.39999999999998" y2="91.19999999999999" stroke="#000000" stroke-width="2.0" />
    <line x1="120.6" y1="81.39999999999999" x2="120.6" y2="91.19999999999999" stroke="#000000" stroke-width="2.0" />
    <line x1="120.6" y1="81.39999999999999" x2="130.39999999999998" y2="81.39999999999999" stroke="#000000" stroke-width="2.0" />
    <line x1="122.23333333333332" y1="91.19999999999999" x2="122.23333333333332" y2="100.99999999999999" stroke="#000000" stroke-width="2.0" />
    <line x1="127.13333333333331" y1="91.19999999999999" x2="127.13333333333331" y2="100.99999999999999" stroke="#000000" stroke-width="2.0" />
    <line x1="120.6" y1="92.83333333333331" x2="130.39999999999998" y2="92.83333333333331" stroke="#000000" stroke-width="2.0" />
    <line x1="120.6" y1="97.73333333333332" x2="130.39999999999998" y2="97.73333333333332" stroke="#000000" stroke-width="2.0" />
    <line x1="130.39999999999998" y1="91.19999999999999" x2="130.39999999999998" y2="100.99999999999999" stroke="#000000" stroke-width="2.0" />
    <line x1="120.6" y1="91.19999999999999" x2="120.6" y2="100.99999999999999" stroke="#000000" stroke-width="2.0" />
    <line x1="122.23333333333332" y1="100.99999999999999" x2="122.23333333333332" y2="110.79999999999998" stroke="#000000" stroke-width="2.0" />
    <line x1="127.13333333333331" y1="100.99999999999999" x2="127.13333333333331" y2="110.79999999999998" stroke="#000000" stroke-width="2.0" />
    <line x1="120.6" y1="102.63333333333331" x2="130.39999999999998" y2="102.63333333333331" stroke="#000000" stroke-width="2.0" />
    <line x1="120.6" y1="107.53333333333332" x2="130.39999999999998" y2="107.53333333333332" stroke="#000000" stroke-width="2.0" />
    <line x1="130.39999999999998" y1="100.99999999999999" x2="130.39999999999998" y2="110.79999999999998" stroke="#000000" stroke-width="2.0" />
    <line x1="120.6" y1="100.99999999999999" x2="120.6" y2="110.79999999999998" stroke="#000000" stroke-width="2.0" />
    <line x1="122.23333333333332" y1="110.79999999999998" x2="122.23333333333332" y2="120.6" stroke="#000000" stroke-width="2.0" />
    <line x1="127.13333333333331" y1="110.79999999999998" x2="127.13333333333331" y2="120.6" stroke="#000000" stroke-width="2.0" />
    <line x1="120.6" y1="112.43333333333331" x2="130.39999999999998" y2="112.43333333333331" stroke="#000000" stroke-width="2.0" />
    <line x1="120.6" y1="117.33333333333331" x2="130.39999999999998" y2="117.33333333333331" stroke="#000000" stroke-width="2.0" />
    <line x1="130.39999999999998" y1="110.79999999999998" x2="130.39999999999998" y2="120.6" stroke="#000000" stroke-width="2.0" />
    <line x1="120.6" y1="110.79999999999998" x2="120.6" y2="120.6" stroke="#000000" stroke-width="2.0" />
    <line x1="120.6" y1="120.6" x2="130.39999999999998" y2="120.6" stroke="#000000" stroke-width="2.0" />
</g>
<g>
    <line x1="12.799999999999999" y1="120.6" x2="22.599999999999998" y2="130.39999999999998" stroke="#000000" stroke-width="2.0" />
    <line x1="22.599999999999998" y1="120.6" x2="22.599999999999998" y2="120.6" stroke="#000000" stroke-width="2.0" />
    <line x1="12.799999999999999" y1="120.6" x2="12.799999999999999" y2="120.6" stroke="#000000" stroke-width="2.0" />
    <line x1="12.799999999999999" y1="130.39999999999998" x2="22.599999999999998" y2="120.6" stroke="#000000" stroke-width="2.0" />
    <line x1="12.799999999999999" y1="120.6" x2="12.799999999999999" y2="130.39999999999998" stroke="#000000" stroke-width="2.0" />
    <line x1="12.799999999999999" y1="130.39999999999998" x2="22.599999999999998" y2="130.39999999999998" stroke="#000000" stroke-width="2.0" />
    <line x1="12.799999999999999" y1="120.6" x2="22.599999999999998" y2="120.6" stroke="#000000" stroke-width="2.0" />
    <line x1="22.599999999999998" y1="120.6" x2="32.4" y2="130.39999999999998" stroke="#000000" stroke-width="2.0" />
    <line x1="32.4" y1="120.6" x2="32.4" y2="120.6" stroke="#000000" stroke-width="2.0" />
    <line x1="22.599999999999998" y1="120.6" x2="22.599999999999998" y2="120.6" stroke="#000000" stroke-width="2.0" />
    <line x1="22.599999999999998" y1="130.39999999999998" x2="32.4" y2="120.6" stroke="#000000" stroke-width="2.0" />
    <line x1="22.599999999999998" y1="130.39999999999998" x2="32.4" y2="130.39999999999998" stroke="#000000" stroke-width="2.0" />
    <line x1="22.599999999999998" y1="120.6" x2="32.4" y2="120.6" stroke="#000000" stroke-width="2.0" />
    <line x1="32.4" y1="120.6" x2="42.199999999999996" y2="130.39999999999998" stroke="#000000" stroke-width="2.0" />
    <line x1="42.199999999999996" y1="120.6" x2="42.199999999999996" y2="120.6" stroke="#000000" stroke-width="2.0" />
    <line x1="32.4" y1="120.6" x2="32.4" y2="120.6" stroke="#000000" stroke-width="2.0" />
    <line x1="32.4" y1="130.39999999999998" x2="42.199999999999996" y2="120.6" stroke="#000000" stroke-width="2.0" />
    <line x1="32.4" y1="130.39999999999998" x2="42.199999999999996" y2="130.39999999999998" stroke="#000000" stroke-width="2.0" />
    <line x1="32.4" y1="120.6" x2="42.199999999999996" y2="120.6" stroke="#000000" stroke-width="2.0" />
    <line x1="42.199999999999996" y1="120.6" x2="51.99999999999999" y2="130.39999999999998" stroke="#000000" stroke-width="2.0" />
    <line x1="51.99999999999999" y1="120.6" x2="51.99999999999999" y2="120.6" stroke="#000000" stroke-width="2.0" />
    <line x1="42.199999999999996" y1="120.6" x2="42.199999999999996" y2="120.6" stroke="#000000" stroke-width="2.0" />
    <line x1="42.199999999999996" y1="130.39999999999998" x2="51.99999999999999" y2="120.6" stroke="#000000" stroke-width="2.0" />
    <line x1="42.199999999999996" y1="130.39999999999998" x2="51.99999999999999" y2="130.39999999999998" stroke="#000000" stroke-width="2.0" />
    <line x1="42.199999999999996" y1="120.6" x2="51.99999999999999" y2="120.6" stroke="#000000" stroke-width="2.0" />
    <line x1="51.99999999999999" y1="120.6" x2="61.8" y2="130.39999999999998" stroke="#000000" stroke-width="2.0" />
    <line x1="61.8" y1="120.6" x2="61.8" y2="120.6" stroke="#000000" stroke-width="2.0" />
    <line x1="51.99999999999999" y1="120.6" x2="51.99999999999999" y2="120.6" stroke="#000000" stroke-width="2.0" />
    <line x1="51.99999999999999" y1="130.39999999999998" x2="61.8" y2="120.6" stroke="#000000" stroke-width="2.0" />
    <line x1="61.8" y1="120.6" x2="61.8" y2="130.39999999999998" stroke="#000000" stroke-width="2.0" />
    <line x1="51.99999999999999" y1="130.39999999999998" x2="61.8" y2="130.39999999999998" stroke="#000000" stroke-width="2.0" />
    <line x1="51.99999999999999" y1="120.6" x2="61.8" y2="120.6" stroke="#000000" stroke-width="2.0" />
</g>
<g>
    <line x1="83.03333333333332" y1="120.6" x2="83.03333333333332" y2="130.39999999999998" stroke="#000000" stroke-width="2.0" />
    <line x1="87.93333333333332" y1="120.6" x2="87.93333333333332" y2="130.39999999999998" stroke="#000000" stroke-width="2.0" />
    <line x1="81.39999999999999" y1="122.23333333333332" x2="91.19999999999999" y2="122.23333333333332" stroke="#000000" stroke-width="2.0" />
    <line x1="81.39999999999999" y1="127.13333333333331" x2="91.19999999999999" y2="127.13333333333331" stroke="#000000" stroke-width="2.0" />
    <line x1="81.39999999999999" y1="120.6" x2="81.39999999999999" y2="130.39999999999998" stroke="#000000" stroke-width="2.0" />
    <line x1="81.39999999999999" y1="130.39999999999998" x2="91.19999999999999" y2="130.39999999999998" stroke="#000000" stroke-width="2.0" />
    <line x1="81.39999999999999" y1="120.6" x2="91.19999999999999" y2="120.6" stroke="#000000" stroke-width="2.0" />
    <line x1="92.83333333333331" y1="120.6" x2="92.83333333333331" y2="130.39999999999998" stroke="#000000" stroke-width="2.0" />
    <line x1="97.73333333333332" y1="120.6" x2="97.73333333333332" y2="130.39999999999998" stroke="#000000" stroke-width="2.0" />
    <line x1="91.19999999999999" y1="122.23333333333332" x2="100.99999999999999" y2="122.23333333333332" stroke="#000000" stroke-width="2.0" />
    <line x1="91.19999999999999" y1="127.13333333333331" x2="100.99999999999999" y2="127.13333333333331" stroke="#000000" stroke-width="2.0" />
    <line x1="91.19999999999999" y1="130.39999999999998" x2="100.99999999999999" y2="130.39999999999998" stroke="#000000" stroke-width="2.0" />
    <line x1="91.19999999999999" y1="120.6" x2="100.99999999999999" y2="120.6" stroke="#000000" stroke-width="2.0" />
    <line x1="102.63333333333331" y1="120.6" x2="102.63333333333331" y2="130.39999999999998" stroke="#000000" stroke-width="2.0" />
    <line x1="107.53333333333332" y1="120.6" x2="107.53333333333332" y2="130.39999999999998" stroke="#000000" stroke-width="2.0" />
    <line x1="100.99999999999999" y1="122.23333333333332" x2="110.79999999999998" y2="122.23333333333332" stroke="#000000" stroke-width="2.0" />
    <line x1="100.99999999999999" y1="127.13333333333331" x2="110.79999999999998" y2="127.13333333333331" stroke="#000000" stroke-width="2.0" />
    <line x1="100.99999999999999" y1="130.39999999999998" x2="110.79999999999998" y2="130.39999999999998" stroke="#000000" stroke-width="2.0" />
    <line x1="100.99999999999999" y1="120.6" x2="110.79999999999998" y2="120.6" stroke="#000000" stroke-width="2.0" />
    <line x1="112.43333333333331" y1="120.6" x2="112.43333333333331" y2="130.39999999999998" stroke="#000000" stroke-width="2.0" />
    <line x1="117.33333333333331" y1="120.6" x2="117.33333333333331" y2="130.39999999999998" stroke="#000000" stroke-width="2.0" />
    <line x1="110.79999999999998" y1="122.23333333333332" x2="120.6" y2="122.23333333333332" stroke="#000000" stroke-width="2.0" />
    <line x1="110.79999999999998" y1="127.13333333333331" x2="120.6" y2="127.13333333333331" stroke="#000000" stroke-width="2.0" />
    <line x1="120.6" y1="120.6" x2="120.6" y2="130.39999999999998" stroke="#000000" stroke-width="2.0" />
    <line x1="110.79999999999998" y1="130.39999999999998" x2="120.6" y2="130.39999999999998" stroke="#000000" stroke-width="2.0" />
    <line x1="110.79999999999998" y1="120.6" x2="120.6" y2="120.6" stroke="#000000" stroke-width="2.0" />
</g>
</svg>
