<svg xmlns="http://www.w3.org/2000/svg" viewBox="0 0 420 150">
    <path fill="#306998" d="M195.9,69.6h-0.2c-0.3-0.7-0.8-1.5-1.4-2.2c-0.6-0.8-1.5-1.4-2.5-1.9c-1-0.5-2.3-0.8-3.8-0.8 c-2,0-3.8,0.5-5.5,1.6s-3,2.6-4,4.7c-1,2.1-1.5,4.7-1.5,7.8c0,3,0.5,5.6,1.5,7.7c1,2.1,2.3,3.7,4,4.7c1.7,1.1,3.5,1.6,5.6,1.6 c1.5,0,2.7-0.2,3.7-0.7s1.9-1.1,2.5-1.8c0.6-0.7,1.1-1.5,1.5-2.2h0.3v4.4h7.5V56h-7.5V69.6z M195.4,82.9c-0.5,1.2-1.1,2.1-2,2.8 c-0.8,0.7-1.9,1-3.1,1c-1.2,0-2.3-0.3-3.1-1c-0.8-0.7-1.5-1.6-1.9-2.8c-0.4-1.2-0.7-2.6-0.7-4.2c0-1.6,0.2-3,0.7-4.2 c0.4-1.2,1.1-2.1,1.9-2.8c0.9-0.7,1.9-1,3.1-1c1.2,0,2.3,0.3,3.1,1c0.9,0.7,1.5,1.6,2,2.8c0.5,1.2,0.7,2.6,0.7,4.2 C196.1,80.3,195.9,81.7,195.4,82.9z M227.1,65.1l8,0l-10.6,30.2c-0.5,1.5-1.2,2.7-2.1,3.8c-0.9,1.1-2,1.9-3.3,2.5 c-1.3,0.6-2.9,0.9-4.8,0.9c-1,0-1.9-0.1-2.7-0.2c-0.8-0.1-1.5-0.3-2.1-0.5l1.7-5.7c1.3,0.4,2.5,0.5,3.4,0.3s1.6-0.9,2.2-2.1l0.4-1.2 l-9.8-28.1h8l5.6,20h0.3L227.1,65.1z M263,69.5c0.8,1.5,1.2,3.4,1.2,5.5v17.4h-7.6v-16c0-1.7-0.4-3-1.3-3.9 c-0.9-0.9-2.1-1.4-3.6-1.4c-1,0-1.9,0.2-2.7,0.7c-0.8,0.4-1.4,1.1-1.8,1.9c-0.4,0.8-0.7,1.8-0.7,3v15.8H239V65.1h7.2v4.8h0.3 c0.6-1.6,1.6-2.8,3-3.8c1.4-0.9,3.1-1.4,5.2-1.4c1.9,0,3.5,0.4,5,1.2C261.1,66.8,262.2,67.9,263,69.5z M292.3,69.7 c-0.6-1.2-1.5-2.1-2.6-2.9c-1.1-0.7-2.3-1.3-3.7-1.7c-1.4-0.4-2.8-0.5-4.4-0.5c-2.2,0-4.1,0.3-5.7,1c-1.7,0.7-3,1.6-4,2.8 c-1,1.2-1.7,2.6-2.1,4.3l7,0.6c0.3-0.9,0.8-1.6,1.6-2.2c0.8-0.6,1.9-0.9,3.2-0.9c1.3,0,2.3,0.3,3,0.9c0.7,0.6,1.1,1.5,1.1,2.6v0.1 c0,0.6-0.2,1-0.7,1.3c-0.4,0.3-1.1,0.5-2.1,0.7c-1,0.1-2.2,0.3-3.8,0.5c-1.3,0.1-2.6,0.4-3.9,0.7c-1.2,0.3-2.3,0.8-3.3,1.4 c-1,0.6-1.7,1.5-2.3,2.5c-0.6,1-0.8,2.3-0.8,3.8c0,1.8,0.4,3.3,1.2,4.5s1.9,2.1,3.2,2.7s2.9,0.9,4.7,0.9c1.3,0,2.5-0.2,3.6-0.5 c1-0.4,1.9-0.9,2.6-1.5c0.7-0.6,1.3-1.4,1.8-2.2h0.2v3.8h7.2V73.9C293.2,72.3,292.9,70.9,292.3,69.7z M285.7,82.6 c0,1-0.2,1.8-0.7,2.6c-0.5,0.8-1.2,1.4-2,1.8s-1.8,0.7-2.9,0.7c-1.2,0-2.1-0.3-2.9-0.8c-0.8-0.5-1.1-1.3-1.1-2.4 c0-0.7,0.2-1.3,0.5-1.8c0.4-0.5,0.9-0.9,1.5-1.1c0.7-0.3,1.4-0.5,2.3-0.6c0.4-0.1,0.9-0.1,1.4-0.2s1-0.2,1.5-0.3s1-0.2,1.4-0.3 s0.7-0.3,1-0.4V82.6z" />
    <path fill="#ffd43b" d="M308.1,75c-0.4,1-0.5,2.2-0.5,3.7c0,1.5,0.2,2.7,0.5,3.7c0.4,1,0.9,1.7,1.5,2.2 c0.6,0.5,1.4,0.7,2.2,0.7c0.7,0,1.4-0.2,1.9-0.5c0.6-0.3,1-0.8,1.4-1.5c0.3-0.7,0.6-1.5,0.6-2.4h9.1c0,2.4-0.6,4.5-1.7,6.3 s-2.6,3.2-4.5,4.1s-4.3,1.5-7,1.5c-3,0-5.5-0.6-7.6-1.8c-2.1-1.2-3.7-2.8-4.8-4.9c-1.1-2.1-1.7-4.6-1.7-7.4c0-2.8,0.6-5.2,1.7-7.4 c1.1-2.1,2.7-3.8,4.8-4.9c2.1-1.2,4.6-1.8,7.6-1.8c2.7,0,5,0.5,7,1.4s3.5,2.3,4.6,4.1s1.6,3.8,1.6,6.2h-9.1 c-0.1-1.4-0.5-2.5-1.2-3.3c-0.7-0.8-1.6-1.1-2.7-1.1c-0.9,0-1.6,0.2-2.2,0.7C309,73.2,308.5,74,308.1,75z M354.5,71.4 c1.1,2.1,1.7,4.6,1.7,7.4c0,2.8-0.6,5.2-1.7,7.4c-1.1,2.1-2.7,3.8-4.8,4.9c-2.1,1.2-4.6,1.8-7.6,1.8s-5.5-0.6-7.6-1.8 c-2.1-1.2-3.7-2.8-4.8-4.9c-1.1-2.1-1.7-4.6-1.7-7.4c0-2.8,0.6-5.2,1.7-7.4c1.1-2.1,2.7-3.8,4.8-4.9c2.1-1.2,4.6-1.8,7.6-1.8 s5.5,0.6,7.6,1.8C351.7,67.6,353.3,69.3,354.5,71.4z M346.1,78.7c0-1.4-0.2-2.7-0.5-3.7c-0.3-1-0.8-1.8-1.4-2.4 c-0.6-0.6-1.3-0.8-2.1-0.8c-0.9,0-1.6,0.3-2.3,0.8c-0.6,0.6-1.1,1.3-1.4,2.4c-0.3,1-0.5,2.3-0.5,3.7c0,1.4,0.2,2.6,0.5,3.7 c0.3,1,0.8,1.8,1.4,2.4c0.6,0.6,1.4,0.8,2.3,0.8c0.8,0,1.5-0.3,2.1-0.8c0.6-0.6,1.1-1.3,1.4-2.4S346.1,80.1,346.1,78.7z M383.1,66 c-1.4-0.9-3.1-1.3-5-1.3c-2,0-3.7,0.5-5.2,1.5c-1.5,1-2.5,2.3-3.1,4.1h-0.3v-5.2h-9.3v27.3h9.8V77c0-0.9,0.2-1.7,0.5-2.3 c0.3-0.6,0.8-1.1,1.4-1.5c0.6-0.3,1.3-0.5,2.1-0.5c1.2,0,2.2,0.4,2.9,1.2c0.7,0.8,1,1.8,1,3.2v15.3h9.8V74.9c0-2-0.4-3.7-1.2-5.3 S384.6,66.9,383.1,66z M403.8,63.8c0-0.6,0.2-1.2,0.5-1.5c0.3-0.4,0.9-0.6,1.9-0.6c0.4,0,0.8,0,1.2,0.1c0.5,0.1,0.9,0.2,1.2,0.3 l1.4-7c-0.6-0.1-1.4-0.3-2.6-0.5c-1.2-0.2-2.4-0.3-3.6-0.3c-2,0-3.7,0.4-5.2,1.1s-2.6,1.8-3.4,3.3c-0.8,1.5-1.2,3.3-1.2,5.6v0.8 h-3.5v7.1h3.5v20.2h9.8V72.2h5v-7.1h-5V63.8z M418.5,84.5c-1-1-2.2-1.4-3.5-1.4c-1.4,0-2.5,0.5-3.5,1.4c-1,1-1.5,2.1-1.4,3.5 c0,1.4,0.5,2.6,1.4,3.5s2.2,1.4,3.5,1.4c0.9,0,1.7-0.2,2.4-0.7s1.4-1,1.8-1.8c0.5-0.8,0.7-1.6,0.7-2.5 C420,86.6,419.5,85.4,418.5,84.5z" />
    <path fill="#306998" d="M113.4,10.3l-12.2,10.5c-3.2-1.5-6.5-2.7-9.9-3.7L88.8,1.2C84.7,0.4,80.4,0,76,0l-5.3,15.2 c-3.6,0.3-7.1,0.9-10.4,1.8L50.1,4.4c-4.1,1.5-8,3.3-11.7,5.4l3,15.9c-2.9,2-5.6,4.3-8.1,6.8l-15-5.8c-2.8,3.3-5.3,6.8-7.5,10.5 l10.5,12.2c-1.5,3.2-2.7,6.5-3.7,9.9L1.7,61.7c-0.7,4.2-1.1,8.5-1.2,12.8l15.2,5.3c0.3,3.6,0.9,7.1,1.8,10.4L4.9,100.4 c1.5,4.1,3.3,8,5.4,11.7l13.5-2.5l14.1-11.7c-4.1-6.7-6.4-14.5-6.4-22.9c0-24.3,19.7-44,44-44c11.3,0,21.7,4.3,29.5,11.3l13.9-11.5 l5.1-13.1C120.7,15,117.2,12.5,113.4,10.3z M113,26c-2.2,0-4-1.8-4-4c0-2.2,1.8-4,4-4s4,1.8,4,4C117,24.2,115.2,26,113,26z" />
    <path fill="#ffd43b" d="M149.3,88.3c0.7-4.2,1.1-8.5,1.2-12.8l-15.2-5.3c-0.3-3.6-0.9-7.1-1.8-10.4l12.6-10.1 c-1.5-4.1-3.3-8-5.4-11.7l-12.3,2.3l-15,12.5c3.9,6.5,6.1,14.2,6.1,22.3c0,24.3-19.7,44-44,44c-11.1,0-21.2-4.1-28.9-10.8l-15,12.5 l-4.5,11.6c3.3,2.8,6.8,5.3,10.5,7.5l12.2-10.5c3.2,1.5,6.5,2.7,9.9,3.7l2.5,15.9c4.2,0.7,8.5,1.1,12.8,1.2l5.3-15.2 c3.6-0.3,7.1-0.9,10.4-1.8l10.1,12.6c4.1-1.5,8-3.3,11.7-5.4l-3-15.9c2.9-2,5.6-4.3,8.1-6.8l15,5.8c2.8-3.3,5.3-6.8,7.5-10.5 l-10.5-12.2c1.5-3.2,2.7-6.5,3.7-9.9L149.3,88.3z M38,132c-2.2,0-4-1.8-4-4c0-2.2,1.8-4,4-4s4,1.8,4,4C42,130.2,40.2,132,38,132z" />
</svg>
