<svg xmlns="http://www.w3.org/2000/svg" viewBox="0 0 150 150">
    <path fill="#306998" d="M113.4,10.3l-12.2,10.5c-3.2-1.5-6.5-2.7-9.9-3.7L88.8,1.2C84.7,0.4,80.4,0,76,0l-5.3,15.2 c-3.6,0.3-7.1,0.9-10.4,1.8L50.1,4.4c-4.1,1.5-8,3.3-11.7,5.4l3,15.9c-2.9,2-5.6,4.3-8.1,6.8l-15-5.8c-2.8,3.3-5.3,6.8-7.5,10.5 l10.5,12.2c-1.5,3.2-2.7,6.5-3.7,9.9L1.7,61.7c-0.7,4.2-1.1,8.5-1.2,12.8l15.2,5.3c0.3,3.6,0.9,7.1,1.8,10.4L4.9,100.4 c1.5,4.1,3.3,8,5.4,11.7l13.5-2.5l14.1-11.7c-4.1-6.7-6.4-14.5-6.4-22.9c0-24.3,19.7-44,44-44c11.3,0,21.7,4.3,29.5,11.3l13.9-11.5 l5.1-13.1C120.7,15,117.2,12.5,113.4,10.3z M113,26c-2.2,0-4-1.8-4-4c0-2.2,1.8-4,4-4s4,1.8,4,4C117,24.2,115.2,26,113,26z" />
    <path fill="#ffd43b" d="M149.3,88.3c0.7-4.2,1.1-8.5,1.2-12.8l-15.2-5.3c-0.3-3.6-0.9-7.1-1.8-10.4l12.6-10.1 c-1.5-4.1-3.3-8-5.4-11.7l-12.3,2.3l-15,12.5c3.9,6.5,6.1,14.2,6.1,22.3c0,24.3-19.7,44-44,44c-11.1,0-21.2-4.1-28.9-10.8l-15,12.5 l-4.5,11.6c3.3,2.8,6.8,5.3,10.5,7.5l12.2-10.5c3.2,1.5,6.5,2.7,9.9,3.7l2.5,15.9c4.2,0.7,8.5,1.1,12.8,1.2l5.3-15.2 c3.6-0.3,7.1-0.9,10.4-1.8l10.1,12.6c4.1-1.5,8-3.3,11.7-5.4l-3-15.9c2.9-2,5.6-4.3,8.1-6.8l15,5.8c2.8-3.3,5.3-6.8,7.5-10.5 l-10.5-12.2c1.5-3.2,2.7-6.5,3.7-9.9L149.3,88.3z M38,132c-2.2,0-4-1.8-4-4c0-2.2,1.8-4,4-4s4,1.8,4,4C42,130.2,40.2,132,38,132z" />
</svg>
